<svg xmlns="http://www.w3.org/2000/svg" viewBox="0 0 48 48"><defs><style>.cls-1{fill:#374f68;}.cls-2{fill:#2c435e;}.cls-3{fill:#db5669;}.cls-4{fill:#f26674;}.cls-5{fill:#dad7e5;}.cls-6{fill:#edebf2;}.cls-7{fill:#425b72;}.cls-8{fill:#919191;}.cls-9{fill:#7c7d7d;}</style></defs><title>Clock</title><g id="Clock"><path class="cls-1" d="M23,13V10a1,1,0,0,1,2,0v3A1,1,0,0,1,23,13Z"/><path class="cls-1" d="M26,11H22a1,1,0,0,1,0-2h4A1,1,0,0,1,26,11Z"/><path class="cls-2" d="M33.2,9.65c-.4,0-.41-.06-2-1.25S30,5.85,30,4a2,2,0,0,0-2-2H20a2,2,0,0,0-2,2c0,3.4.27,3.3-2.6,5.45a1,1,0,0,1-1.2-1.6C16.32,6.26,16,6.93,16,4a4,4,0,0,1,4-4h8a4,4,0,0,1,4,4c0,2.9-.34,2.24,1.8,3.85A1,1,0,0,1,33.2,9.65Z"/><path class="cls-1" d="M38.86,10.27A1,1,0,0,1,38,8.7l1.15-1.64A1,1,0,0,1,40.83,8.2C39.71,9.81,39.55,10.27,38.86,10.27Z"/><path class="cls-1" d="M9.14,10.27c-.65,0-.73-.3-2-2.07A1,1,0,0,1,8.81,7.06L10,8.7A1,1,0,0,1,9.14,10.27Z"/><path class="cls-2" d="M33.87,17.4a1,1,0,0,1-.82-1.57l2.13-3A1,1,0,0,1,36.82,14C34.56,17.17,34.56,17.4,33.87,17.4Z"/><path class="cls-2" d="M14.13,17.4c-.69,0-.7-.25-3-3.45a1,1,0,0,1,1.64-1.16l2.13,3A1,1,0,0,1,14.13,17.4Z"/><path class="cls-3" d="M40,29A16,16,0,0,1,24,45C9.28,45,2.19,26.39,13.73,16.73,24,8.09,40,15.39,40,29Z"/><path class="cls-4" d="M40,29a15.9,15.9,0,0,1-3.75,10.29c-7.1,5.33-15,4.49-20.38.1a16,16,0,0,1-2.14-22.66C24,8.09,40,15.39,40,29Z"/><path class="cls-5" d="M36,29A12,12,0,1,1,23,17,12,12,0,0,1,36,29Z"/><path class="cls-6" d="M36,29c0,3.61-1.86,7-2.92,7.67A12,12,0,0,1,16.33,19.92C17,18.86,20.34,17,24,17A12,12,0,0,1,36,29Z"/><path class="cls-1" d="M17.2,43.48l-1.75,2.79A1.54,1.54,0,0,1,12.68,45l1.19-3.58A15.54,15.54,0,0,0,17.2,43.48Z"/><path class="cls-7" d="M17.2,43.48l-1.53,2.44a1.53,1.53,0,0,1-1-2l.53-1.6A14.87,14.87,0,0,0,17.2,43.48Z"/><path class="cls-1" d="M33.86,47c-1.14,0-1.37-.83-3.06-3.52a15.64,15.64,0,0,0,3.33-2.09L35.32,45A1.54,1.54,0,0,1,33.86,47Z"/><path class="cls-7" d="M35.31,44.93a1.52,1.52,0,0,1-1.76-.66l-1.07-1.7a13.74,13.74,0,0,0,1.65-1.18Z"/><path class="cls-1" d="M35.43,8.82h4a3,3,0,0,1,3,3v2a0,0,0,0,1,0,0h-10a0,0,0,0,1,0,0v-2A3,3,0,0,1,35.43,8.82Z" transform="translate(13.26 -19.42) rotate(35)"/><path class="cls-1" d="M16.1,10.5,7.91,16.23,6.76,14.6a3,3,0,0,1,.74-4.18l3.28-2.3a3,3,0,0,1,3.89.38A19.61,19.61,0,0,1,16.1,10.5Z"/><path class="cls-7" d="M14.67,8.5,9.54,12.09a2,2,0,0,1-2.78-.49c-.41-.58.81-1.23,4-3.48A3,3,0,0,1,14.67,8.5Z"/><path class="cls-7" d="M33.33,8.5l5.13,3.59a2,2,0,0,0,2.78-.49c.41-.58-.81-1.23-4-3.48A3,3,0,0,0,33.33,8.5Z"/><path class="cls-8" d="M25,17v2a1,1,0,0,1-2,0V17A13.35,13.35,0,0,1,25,17Z"/><path class="cls-9" d="M16.22,22.64l-1.38-1.39a11.73,11.73,0,0,1,1.42-1.4l1.38,1.37A1,1,0,0,1,16.22,22.64Z"/><path class="cls-9" d="M14,30H12a13.35,13.35,0,0,1,0-2h2A1,1,0,0,1,14,30Z"/><path class="cls-9" d="M17.64,36.78l-1.39,1.38a11.74,11.74,0,0,1-1.41-1.41l1.38-1.39A1,1,0,0,1,17.64,36.78Z"/><path class="cls-9" d="M25,39v2a13.35,13.35,0,0,1-2,0V39A1,1,0,0,1,25,39Z"/><path class="cls-9" d="M33.15,36.74a11.73,11.73,0,0,1-1.4,1.42l-1.39-1.38a1,1,0,0,1,1.42-1.42Z"/><path class="cls-8" d="M36,30H34a1,1,0,0,1,0-2h2A13.35,13.35,0,0,1,36,30Z"/><path class="cls-8" d="M33.16,21.25c-1.53,1.54-1.56,1.68-2.09,1.68a1,1,0,0,1-.71-1.71l1.39-1.38A11.74,11.74,0,0,1,33.16,21.25Z"/><path class="cls-8" d="M23,28V23a1,1,0,0,1,2,0v5A1,1,0,0,1,23,28Z"/><path class="cls-8" d="M28,30H25a1,1,0,0,1,0-2h3A1,1,0,0,1,28,30Z"/><path class="cls-8" d="M16.22,22.64l-1-1a9.89,9.89,0,0,1,1.07-1.75l1.31,1.3A1,1,0,0,1,16.22,22.64Z"/><path class="cls-8" d="M14.36,29.93A11.26,11.26,0,0,1,14.05,28,1,1,0,0,1,14.36,29.93Z"/><path class="cls-8" d="M17.9,35.84a8.61,8.61,0,0,1-.74-.74A1,1,0,0,1,17.9,35.84Z"/><path class="cls-8" d="M25,39a11.14,11.14,0,0,1-1.92-.31A1,1,0,0,1,25,39Z"/><path class="cls-8" d="M33.08,36.67a9.89,9.89,0,0,1-1.75,1.07l-1-1a1,1,0,0,1,1.42-1.42Z"/><path class="cls-1" d="M26,29a2,2,0,1,1-2.82-1.82A2,2,0,0,1,26,29Z"/><path class="cls-7" d="M25.82,29.82a2,2,0,0,1-2.64-2.64A2,2,0,0,1,25.82,29.82Z"/></g></svg>