<svg id="Layer_1" data-name="Layer 1" xmlns="http://www.w3.org/2000/svg" viewBox="0 0 128 128"><title>BALLONS</title><path d="M49.073,108.613a1.75,1.75,0,0,1-.608-3.391c3.365-1.249,6.174-4.617,7.329-8.791a16.794,16.794,0,0,0-3.372-15.071c-9.221-11.51-3.2-17.731-2.939-17.99a1.75,1.75,0,0,1,2.485,2.464c-.2.219-3.92,4.467,3.186,13.337a20.255,20.255,0,0,1,4.014,18.193c-1.472,5.318-5.019,9.482-9.486,11.139A1.741,1.741,0,0,1,49.073,108.613Z" style="fill:#feded6"/><path d="M79.552,120.251a1.75,1.75,0,0,1-.608-3.391c3.365-1.249,6.173-4.617,7.329-8.791A16.8,16.8,0,0,0,82.9,93c-9.221-11.51-3.2-17.731-2.939-17.991a1.75,1.75,0,0,1,2.485,2.464c-.2.219-3.92,4.467,3.186,13.338A20.255,20.255,0,0,1,89.646,109c-1.472,5.318-5.018,9.482-9.485,11.139A1.738,1.738,0,0,1,79.552,120.251Z" style="fill:#feded6"/><ellipse cx="51.115" cy="37.055" rx="23.473" ry="27.555" style="fill:#f8b62b"/><path d="M56.654,10.274C46.365,13.2,38.72,24.072,38.72,37.05S46.365,60.9,56.654,63.826c10.29-2.923,17.934-13.8,17.934-26.776S66.944,13.2,56.654,10.274Z" style="fill:#f9d12f"/><path d="M68.864,38.805a1.75,1.75,0,0,1-1.75-1.75c0-10.524-7.177-19.086-16-19.086a1.75,1.75,0,0,1,0-3.5c10.751,0,19.5,10.132,19.5,22.586A1.75,1.75,0,0,1,68.864,38.805Z" style="fill:#feded6"/><ellipse cx="81.595" cy="48.693" rx="23.473" ry="27.555" style="fill:#1ba4fc"/><path d="M87.133,21.916C76.844,24.839,69.2,35.715,69.2,48.693s7.644,23.853,17.934,26.776c10.29-2.923,17.934-13.8,17.934-26.776S97.423,24.839,87.133,21.916Z" style="fill:#2ec3fc"/><rect x="104.994" y="91.049" width="6.542" height="6.542" transform="translate(-34.984 104.18) rotate(-45)" style="fill:#fd748c"/><rect x="13.21" y="12.949" width="6.542" height="6.542" transform="translate(-6.642 16.404) rotate(-45)" style="fill:#fd748c"/><path d="M110.98,19.048a2.413,2.413,0,1,1,2.413-2.413A2.416,2.416,0,0,1,110.98,19.048Z" style="fill:#fd852b"/><path d="M110.98,28.052a2.413,2.413,0,1,1,2.413-2.413A2.416,2.416,0,0,1,110.98,28.052Z" style="fill:#fd852b"/><path d="M106.478,23.55a2.413,2.413,0,1,1,2.413-2.413A2.416,2.416,0,0,1,106.478,23.55Z" style="fill:#fd852b"/><path d="M115.482,23.55a2.413,2.413,0,1,1,2.413-2.413A2.416,2.416,0,0,1,115.482,23.55Z" style="fill:#fd852b"/><path d="M28.688,75.4A2.413,2.413,0,1,1,31.1,72.992,2.416,2.416,0,0,1,28.688,75.4Z" style="fill:#fd852b"/><path d="M28.688,84.409A2.413,2.413,0,1,1,31.1,82,2.416,2.416,0,0,1,28.688,84.409Z" style="fill:#fd852b"/><path d="M24.186,79.906A2.413,2.413,0,1,1,26.6,77.494,2.416,2.416,0,0,1,24.186,79.906Z" style="fill:#fd852b"/><path d="M33.19,79.906A2.413,2.413,0,1,1,35.6,77.494,2.415,2.415,0,0,1,33.19,79.906Z" style="fill:#fd852b"/><path d="M99.343,50.442a1.75,1.75,0,0,1-1.75-1.75c0-10.524-7.177-19.085-16-19.085a1.75,1.75,0,0,1,0-3.5c10.751,0,19.5,10.132,19.5,22.586A1.75,1.75,0,0,1,99.343,50.442Z" style="fill:#feded6"/></svg>