<svg width="96" height="96" viewBox="0 0 96 96" fill="none" xmlns="http://www.w3.org/2000/svg">
<path fill-rule="evenodd" clip-rule="evenodd" d="M30.8032 65.6468C31.1346 66.0886 31.045 66.7154 30.6032 67.0468C30.6041 67.0461 30.6038 67.0464 30.6025 67.0477C30.5916 67.0582 30.5109 67.1359 30.4026 67.339C30.2871 67.5555 30.1583 67.8816 30.0578 68.3388C29.8568 69.2527 29.7762 70.6575 30.1114 72.6689L30.1178 72.7075C30.5523 75.314 30.9993 77.9961 31.1119 80.3603C31.2231 82.6954 31.026 84.9577 29.9571 86.5611C29.6507 87.0206 29.0298 87.1448 28.5703 86.8385C28.1108 86.5321 27.9866 85.9112 28.293 85.4517C28.9804 84.4206 29.2225 82.7309 29.1141 80.4554C29.0077 78.2207 28.5804 75.6484 28.1386 72.9977C27.7713 70.7938 27.8371 69.1249 28.1044 67.9092C28.3623 66.7367 28.8361 65.8722 29.4032 65.4468C29.845 65.1154 30.4718 65.205 30.8032 65.6468Z" fill="#E8AB0F"/>
<path d="M24.2949 70.6378C25.1731 69.7596 26.4904 67.125 26.4904 65.8077H31.7596C31.7596 66.8615 32.6378 69.1742 33.516 70.6378C31.7596 70.6378 29.5641 72.5406 28.6859 73.2724C28.6859 72.5699 25.3194 71.2233 24.2949 70.6378Z" fill="#CA8A0D"/>
<path d="M46.25 41.3481C46.25 53.9586 39.1727 67.5641 30.4423 67.5641C21.712 67.5641 14.6346 53.9586 14.6346 41.3481C14.6346 28.7376 21.712 21.8974 30.4423 21.8974C39.1727 21.8974 46.25 28.7376 46.25 41.3481Z" fill="#FFBC10"/>
<path fill-rule="evenodd" clip-rule="evenodd" d="M43.3541 60.1816C40.3712 65.372 35.8943 69.5641 30.4423 69.5641C24.9903 69.5641 20.5134 65.372 17.5305 60.1816C14.4899 54.8906 12.6346 47.9913 12.6346 41.3481C12.6346 34.6745 14.5107 29.309 17.756 25.5807C21.0156 21.836 25.5283 19.8974 30.4423 19.8974C35.3563 19.8974 39.869 21.836 43.1286 25.5807C46.3739 29.309 48.25 34.6745 48.25 41.3481C48.25 47.9913 46.3947 54.8906 43.3541 60.1816ZM30.4423 67.5641C39.1727 67.5641 46.25 53.9586 46.25 41.3481C46.25 28.7376 39.1727 21.8974 30.4423 21.8974C21.712 21.8974 14.6346 28.7376 14.6346 41.3481C14.6346 53.9586 21.712 67.5641 30.4423 67.5641Z" fill="#E99B04"/>
<path fill-rule="evenodd" clip-rule="evenodd" d="M26.9295 64.9295C35.6598 64.9295 42.7372 51.3239 42.7372 38.7134C42.7372 31.9755 40.7167 26.8849 37.5031 23.6049C42.689 26.3614 46.25 32.403 46.25 41.3481C46.25 53.9586 39.1727 67.5641 30.4423 67.5641C27.6571 67.5641 25.0401 66.1794 22.7675 63.8839C24.0936 64.5591 25.489 64.9295 26.9295 64.9295Z" fill="#EDAD0A"/>
<path d="M31.3205 38.5833C31.3205 44.8886 28.175 50 24.2949 50C20.4147 50 17.2692 44.8886 17.2692 38.5833C17.2692 32.2781 20.4147 27.1667 24.2949 27.1667C28.175 27.1667 31.3205 32.2781 31.3205 38.5833Z" fill="#FFD12E"/>
<path fill-rule="evenodd" clip-rule="evenodd" d="M22.6294 30.2706C23.0977 30.5633 23.2401 31.1803 22.9474 31.6486C22.6198 32.1726 22.2077 32.9929 21.8791 33.8403C21.5395 34.716 21.3429 35.4855 21.3429 35.9487C21.3429 36.501 20.8952 36.9487 20.3429 36.9487C19.7907 36.9487 19.3429 36.501 19.3429 35.9487C19.3429 35.0946 19.6586 34.0346 20.0143 33.1172C20.381 32.1717 20.847 31.2355 21.2514 30.5886C21.5441 30.1203 22.161 29.9779 22.6294 30.2706Z" fill="white"/>
<path d="M42.7372 53.2933C42.7372 54.1421 42.2027 54.8301 41.5434 54.8301C40.884 54.8301 40.3496 54.1421 40.3496 53.2933C40.3496 52.4445 40.884 51.7564 41.5434 51.7564C42.2027 51.7564 42.7372 52.4445 42.7372 53.2933Z" fill="#DA9105"/>
<path d="M38.0305 60.6482C38.0305 61.497 37.4961 62.1851 36.8367 62.1851C36.1774 62.1851 35.6429 61.497 35.6429 60.6482C35.6429 59.7995 36.1774 59.1114 36.8367 59.1114C37.4961 59.1114 38.0305 59.7995 38.0305 60.6482Z" fill="#DA9105"/>
<path d="M40.4182 56.367C40.4182 57.2158 39.8837 57.9038 39.2244 57.9038C38.565 57.9038 38.0305 57.2158 38.0305 56.367C38.0305 55.5182 38.565 54.8301 39.2244 54.8301C39.8837 54.8301 40.4182 55.5182 40.4182 56.367Z" fill="#DA9105"/>
<path d="M44.1094 48.8871C44.1094 49.5017 43.7223 50 43.2449 50C42.7674 50 42.3804 49.5017 42.3804 48.8871C42.3804 48.2725 42.7674 47.7742 43.2449 47.7742C43.7223 47.7742 44.1094 48.2725 44.1094 48.8871Z" fill="#DA9105"/>
<path d="M38.5657 53.2933C38.5657 53.9079 38.1787 54.4062 37.7012 54.4062C37.2238 54.4062 36.8367 53.9079 36.8367 53.2933C36.8367 52.6786 37.2238 52.1804 37.7012 52.1804C38.1787 52.1804 38.5657 52.6786 38.5657 53.2933Z" fill="#DA9105"/>
<path d="M36.5897 56.5481C36.5897 57.0846 36.2518 57.5196 35.835 57.5196C35.4182 57.5196 35.0803 57.0846 35.0803 56.5481C35.0803 56.0115 35.4182 55.5765 35.835 55.5765C36.2518 55.5765 36.5897 56.0115 36.5897 56.5481Z" fill="#DA9105"/>
<path d="M34.2707 59.265C34.2707 59.8016 33.9328 60.2366 33.516 60.2366C33.0992 60.2366 32.7613 59.8016 32.7613 59.265C32.7613 58.7284 33.0992 58.2934 33.516 58.2934C33.9328 58.2934 34.2707 58.7284 34.2707 59.265Z" fill="#DA9105"/>
<path d="M35.588 53.6819C35.588 54.0819 35.3361 54.4062 35.0254 54.4062C34.7147 54.4062 34.4628 54.0819 34.4628 53.6819C34.4628 53.2819 34.7147 52.9576 35.0254 52.9576C35.3361 52.9576 35.588 53.2819 35.588 53.6819Z" fill="#DA9105"/>
<path d="M39.1283 50.5214C39.1283 50.9214 38.8764 51.2457 38.5657 51.2457C38.255 51.2457 38.0031 50.9214 38.0031 50.5214C38.0031 50.1214 38.255 49.7972 38.5657 49.7972C38.8764 49.7972 39.1283 50.1214 39.1283 50.5214Z" fill="#DA9105"/>
<path d="M43.2449 46.0755C43.2449 46.4755 42.993 46.7998 42.6823 46.7998C42.3716 46.7998 42.1197 46.4755 42.1197 46.0755C42.1197 45.6755 42.3716 45.3513 42.6823 45.3513C42.993 45.3513 43.2449 45.6755 43.2449 46.0755Z" fill="#DA9105"/>
<path d="M35.0254 63.6286C35.0254 64.1652 34.6875 64.6002 34.2707 64.6002C33.8539 64.6002 33.516 64.1652 33.516 63.6286C33.516 63.092 33.8539 62.657 34.2707 62.657C34.6875 62.657 35.0254 63.092 35.0254 63.6286Z" fill="#DA9105"/>
<path d="M41.3101 49.5499C41.3101 50.0864 40.9722 50.5214 40.5554 50.5214C40.1386 50.5214 39.8007 50.0864 39.8007 49.5499C39.8007 49.0133 40.1386 48.5783 40.5554 48.5783C40.9722 48.5783 41.3101 49.0133 41.3101 49.5499Z" fill="#DA9105"/>
<path fill-rule="evenodd" clip-rule="evenodd" d="M47.8032 55.6468C48.1346 56.0886 48.045 56.7154 47.6032 57.0468C47.6041 57.0461 47.6038 57.0464 47.6025 57.0477C47.5916 57.0582 47.5109 57.1359 47.4026 57.339C47.2871 57.5555 47.1583 57.8816 47.0578 58.3388C46.8568 59.2527 46.7762 60.6575 47.1114 62.6689L47.1178 62.7075C47.5523 65.314 47.9993 67.9961 48.1119 70.3603C48.2231 72.6954 48.026 74.9577 46.9571 76.5611C46.6507 77.0206 46.0298 77.1448 45.5703 76.8385C45.1108 76.5321 44.9866 75.9112 45.293 75.4517C45.9804 74.4206 46.2225 72.7309 46.1141 70.4554C46.0077 68.2207 45.5804 65.6484 45.1386 62.9977C44.7713 60.7938 44.8371 59.1249 45.1044 57.9092C45.3623 56.7367 45.8361 55.8722 46.4032 55.4468C46.845 55.1154 47.4718 55.205 47.8032 55.6468Z" fill="#D659BA"/>
<path d="M41.2949 60.6378C42.1731 59.7596 43.4904 57.125 43.4904 55.8077H48.7596C48.7596 56.8615 49.6378 59.1742 50.516 60.6378C48.7596 60.6378 46.5641 62.5406 45.6859 63.2724C45.6859 62.5699 42.3194 61.2233 41.2949 60.6378Z" fill="#B6369A"/>
<path d="M63.25 31.3481C63.25 43.9586 56.1727 57.5641 47.4423 57.5641C38.712 57.5641 31.6346 43.9586 31.6346 31.3481C31.6346 18.7376 38.712 11.8974 47.4423 11.8974C56.1727 11.8974 63.25 18.7376 63.25 31.3481Z" fill="#F57ADA"/>
<path fill-rule="evenodd" clip-rule="evenodd" d="M60.3541 50.1816C57.3712 55.372 52.8943 59.5641 47.4423 59.5641C41.9903 59.5641 37.5134 55.372 34.5305 50.1816C31.4899 44.8906 29.6346 37.9913 29.6346 31.3481C29.6346 24.6745 31.5107 19.309 34.756 15.5807C38.0156 11.836 42.5283 9.89744 47.4423 9.89744C52.3563 9.89744 56.869 11.836 60.1286 15.5807C63.3739 19.309 65.25 24.6745 65.25 31.3481C65.25 37.9913 63.3947 44.8906 60.3541 50.1816ZM47.4423 57.5641C56.1727 57.5641 63.25 43.9586 63.25 31.3481C63.25 18.7376 56.1727 11.8974 47.4423 11.8974C38.712 11.8974 31.6346 18.7376 31.6346 31.3481C31.6346 43.9586 38.712 57.5641 47.4423 57.5641Z" fill="#DC36B8"/>
<path fill-rule="evenodd" clip-rule="evenodd" d="M43.9295 54.9295C52.6598 54.9295 59.7372 41.3239 59.7372 28.7134C59.7372 21.9755 57.7167 16.8849 54.5031 13.6049C59.689 16.3614 63.25 22.403 63.25 31.3481C63.25 43.9586 56.1727 57.5641 47.4423 57.5641C44.6571 57.5641 42.0401 56.1794 39.7675 53.8839C41.0936 54.5591 42.489 54.9295 43.9295 54.9295Z" fill="#F35FD3"/>
<path d="M48.3205 28.5833C48.3205 34.8886 45.175 40 41.2949 40C37.4147 40 34.2692 34.8886 34.2692 28.5833C34.2692 22.2781 37.4147 17.1667 41.2949 17.1667C45.175 17.1667 48.3205 22.2781 48.3205 28.5833Z" fill="#FF99E9"/>
<path fill-rule="evenodd" clip-rule="evenodd" d="M39.6294 20.2706C40.0977 20.5633 40.2401 21.1803 39.9474 21.6486C39.6198 22.1726 39.2077 22.9929 38.8791 23.8403C38.5395 24.716 38.3429 25.4855 38.3429 25.9487C38.3429 26.501 37.8952 26.9487 37.3429 26.9487C36.7907 26.9487 36.3429 26.501 36.3429 25.9487C36.3429 25.0946 36.6586 24.0346 37.0143 23.1172C37.381 22.1717 37.847 21.2355 38.2514 20.5886C38.5441 20.1203 39.161 19.9779 39.6294 20.2706Z" fill="white"/>
<path d="M59.7372 43.2933C59.7372 44.1421 59.2027 44.8301 58.5434 44.8301C57.884 44.8301 57.3496 44.1421 57.3496 43.2933C57.3496 42.4445 57.884 41.7564 58.5434 41.7564C59.2027 41.7564 59.7372 42.4445 59.7372 43.2933Z" fill="#E54AC3"/>
<path d="M55.0305 50.6482C55.0305 51.497 54.4961 52.1851 53.8367 52.1851C53.1774 52.1851 52.6429 51.497 52.6429 50.6482C52.6429 49.7995 53.1774 49.1114 53.8367 49.1114C54.4961 49.1114 55.0305 49.7995 55.0305 50.6482Z" fill="#E54AC3"/>
<path d="M57.4182 46.367C57.4182 47.2158 56.8837 47.9038 56.2244 47.9038C55.565 47.9038 55.0305 47.2158 55.0305 46.367C55.0305 45.5182 55.565 44.8301 56.2244 44.8301C56.8837 44.8301 57.4182 45.5182 57.4182 46.367Z" fill="#E54AC3"/>
<path d="M61.1094 38.8871C61.1094 39.5017 60.7223 40 60.2449 40C59.7674 40 59.3804 39.5017 59.3804 38.8871C59.3804 38.2725 59.7674 37.7742 60.2449 37.7742C60.7223 37.7742 61.1094 38.2725 61.1094 38.8871Z" fill="#E54AC3"/>
<path d="M55.5657 43.2933C55.5657 43.9079 55.1787 44.4062 54.7012 44.4062C54.2238 44.4062 53.8367 43.9079 53.8367 43.2933C53.8367 42.6786 54.2238 42.1804 54.7012 42.1804C55.1787 42.1804 55.5657 42.6786 55.5657 43.2933Z" fill="#E54AC3"/>
<path d="M53.5897 46.5481C53.5897 47.0846 53.2518 47.5196 52.835 47.5196C52.4182 47.5196 52.0803 47.0846 52.0803 46.5481C52.0803 46.0115 52.4182 45.5765 52.835 45.5765C53.2518 45.5765 53.5897 46.0115 53.5897 46.5481Z" fill="#E54AC3"/>
<path d="M51.2707 49.265C51.2707 49.8016 50.9328 50.2366 50.516 50.2366C50.0992 50.2366 49.7613 49.8016 49.7613 49.265C49.7613 48.7284 50.0992 48.2934 50.516 48.2934C50.9328 48.2934 51.2707 48.7284 51.2707 49.265Z" fill="#E54AC3"/>
<path d="M52.588 43.6819C52.588 44.0819 52.3361 44.4062 52.0254 44.4062C51.7147 44.4062 51.4628 44.0819 51.4628 43.6819C51.4628 43.2819 51.7147 42.9576 52.0254 42.9576C52.3361 42.9576 52.588 43.2819 52.588 43.6819Z" fill="#E54AC3"/>
<path d="M56.1283 40.5214C56.1283 40.9214 55.8764 41.2457 55.5657 41.2457C55.255 41.2457 55.0031 40.9214 55.0031 40.5214C55.0031 40.1214 55.255 39.7972 55.5657 39.7972C55.8764 39.7972 56.1283 40.1214 56.1283 40.5214Z" fill="#E54AC3"/>
<path d="M60.2449 36.0755C60.2449 36.4755 59.993 36.7998 59.6823 36.7998C59.3716 36.7998 59.1197 36.4755 59.1197 36.0755C59.1197 35.6755 59.3716 35.3513 59.6823 35.3513C59.993 35.3513 60.2449 35.6755 60.2449 36.0755Z" fill="#E54AC3"/>
<path d="M52.0254 53.6286C52.0254 54.1652 51.6875 54.6002 51.2707 54.6002C50.8539 54.6002 50.516 54.1652 50.516 53.6286C50.516 53.092 50.8539 52.657 51.2707 52.657C51.6875 52.657 52.0254 53.092 52.0254 53.6286Z" fill="#E54AC3"/>
<path d="M58.3101 39.5499C58.3101 40.0864 57.9722 40.5214 57.5554 40.5214C57.1386 40.5214 56.8007 40.0864 56.8007 39.5499C56.8007 39.0133 57.1386 38.5783 57.5554 38.5783C57.9722 38.5783 58.3101 39.0133 58.3101 39.5499Z" fill="#E54AC3"/>
<path fill-rule="evenodd" clip-rule="evenodd" d="M66.8032 63.6468C67.1346 64.0886 67.045 64.7154 66.6032 65.0468C66.6041 65.0461 66.6038 65.0464 66.6025 65.0477C66.5916 65.0582 66.5109 65.1359 66.4025 65.339C66.2871 65.5555 66.1583 65.8816 66.0578 66.3388C65.8568 67.2527 65.7762 68.6575 66.1114 70.6689L66.1178 70.7075C66.5523 73.314 66.9993 75.9961 67.1119 78.3603C67.2231 80.6954 67.026 82.9577 65.9571 84.5611C65.6507 85.0206 65.0298 85.1448 64.5703 84.8385C64.1108 84.5321 63.9866 83.9112 64.293 83.4517C64.9804 82.4206 65.2225 80.7309 65.1141 78.4554C65.0077 76.2207 64.5804 73.6484 64.1386 70.9977C63.7713 68.7938 63.8371 67.1249 64.1044 65.9092C64.3623 64.7367 64.8361 63.8722 65.4032 63.4468C65.845 63.1154 66.4718 63.205 66.8032 63.6468Z" fill="#18BED5"/>
<path d="M60.2949 68.6378C61.1731 67.7596 62.4904 65.125 62.4904 63.8077H67.7596C67.7596 64.8615 68.6378 67.1742 69.516 68.6378C67.7596 68.6378 65.5641 70.5406 64.6859 71.2724C64.6859 70.5699 61.3194 69.2233 60.2949 68.6378Z" fill="#038496"/>
<path d="M82.25 39.3481C82.25 51.9586 75.1727 65.5641 66.4423 65.5641C57.712 65.5641 50.6346 51.9586 50.6346 39.3481C50.6346 26.7376 57.712 19.8974 66.4423 19.8974C75.1727 19.8974 82.25 26.7376 82.25 39.3481Z" fill="#20DCF6"/>
<path fill-rule="evenodd" clip-rule="evenodd" d="M79.3541 58.1816C76.3712 63.372 71.8943 67.5641 66.4423 67.5641C60.9903 67.5641 56.5134 63.372 53.5305 58.1816C50.4899 52.8906 48.6346 45.9913 48.6346 39.3481C48.6346 32.6745 50.5107 27.309 53.756 23.5807C57.0156 19.836 61.5283 17.8974 66.4423 17.8974C71.3563 17.8974 75.869 19.836 79.1286 23.5807C82.3739 27.309 84.25 32.6745 84.25 39.3481C84.25 45.9913 82.3947 52.8906 79.3541 58.1816ZM66.4423 65.5641C75.1727 65.5641 82.25 51.9586 82.25 39.3481C82.25 26.7376 75.1727 19.8974 66.4423 19.8974C57.712 19.8974 50.6346 26.7376 50.6346 39.3481C50.6346 51.9586 57.712 65.5641 66.4423 65.5641Z" fill="#0592BE"/>
<path fill-rule="evenodd" clip-rule="evenodd" d="M62.9295 62.9295C71.6598 62.9295 78.7372 49.3239 78.7372 36.7134C78.7372 29.9755 76.7167 24.8849 73.5031 21.6049C78.689 24.3614 82.25 30.403 82.25 39.3481C82.25 51.9586 75.1727 65.5641 66.4423 65.5641C63.6571 65.5641 61.0401 64.1794 58.7675 61.8839C60.0936 62.5591 61.489 62.9295 62.9295 62.9295Z" fill="#0ECEE8"/>
<path d="M67.3205 36.5833C67.3205 42.8886 64.175 48 60.2949 48C56.4147 48 53.2692 42.8886 53.2692 36.5833C53.2692 30.2781 56.4147 25.1667 60.2949 25.1667C64.175 25.1667 67.3205 30.2781 67.3205 36.5833Z" fill="#57EAFE"/>
<path fill-rule="evenodd" clip-rule="evenodd" d="M58.6294 28.2706C59.0977 28.5633 59.2401 29.1803 58.9474 29.6486C58.6198 30.1726 58.2077 30.9929 57.8791 31.8403C57.5395 32.716 57.3429 33.4855 57.3429 33.9487C57.3429 34.501 56.8952 34.9487 56.3429 34.9487C55.7907 34.9487 55.3429 34.501 55.3429 33.9487C55.3429 33.0946 55.6586 32.0346 56.0143 31.1172C56.381 30.1717 56.847 29.2355 57.2514 28.5886C57.5441 28.1203 58.161 27.9779 58.6294 28.2706Z" fill="white"/>
<path d="M78.7372 51.2933C78.7372 52.1421 78.2027 52.8301 77.5434 52.8301C76.884 52.8301 76.3496 52.1421 76.3496 51.2933C76.3496 50.4445 76.884 49.7564 77.5434 49.7564C78.2027 49.7564 78.7372 50.4445 78.7372 51.2933Z" fill="#05B2D8"/>
<path d="M74.0305 58.6482C74.0305 59.497 73.4961 60.1851 72.8367 60.1851C72.1774 60.1851 71.6429 59.497 71.6429 58.6482C71.6429 57.7995 72.1774 57.1114 72.8367 57.1114C73.4961 57.1114 74.0305 57.7995 74.0305 58.6482Z" fill="#05B2D8"/>
<path d="M76.4182 54.367C76.4182 55.2158 75.8837 55.9038 75.2244 55.9038C74.565 55.9038 74.0305 55.2158 74.0305 54.367C74.0305 53.5182 74.565 52.8301 75.2244 52.8301C75.8837 52.8301 76.4182 53.5182 76.4182 54.367Z" fill="#05B2D8"/>
<path d="M80.1094 46.8871C80.1094 47.5017 79.7223 48 79.2449 48C78.7674 48 78.3804 47.5017 78.3804 46.8871C78.3804 46.2725 78.7674 45.7742 79.2449 45.7742C79.7223 45.7742 80.1094 46.2725 80.1094 46.8871Z" fill="#05B2D8"/>
<path d="M74.5657 51.2933C74.5657 51.9079 74.1787 52.4062 73.7012 52.4062C73.2238 52.4062 72.8367 51.9079 72.8367 51.2933C72.8367 50.6786 73.2238 50.1804 73.7012 50.1804C74.1787 50.1804 74.5657 50.6786 74.5657 51.2933Z" fill="#05B2D8"/>
<path d="M72.5897 54.5481C72.5897 55.0846 72.2518 55.5196 71.835 55.5196C71.4182 55.5196 71.0803 55.0846 71.0803 54.5481C71.0803 54.0115 71.4182 53.5765 71.835 53.5765C72.2518 53.5765 72.5897 54.0115 72.5897 54.5481Z" fill="#05B2D8"/>
<path d="M70.2707 57.265C70.2707 57.8016 69.9328 58.2366 69.516 58.2366C69.0992 58.2366 68.7613 57.8016 68.7613 57.265C68.7613 56.7284 69.0992 56.2934 69.516 56.2934C69.9328 56.2934 70.2707 56.7284 70.2707 57.265Z" fill="#05B2D8"/>
<path d="M71.588 51.6819C71.588 52.0819 71.3361 52.4062 71.0254 52.4062C70.7147 52.4062 70.4628 52.0819 70.4628 51.6819C70.4628 51.2819 70.7147 50.9576 71.0254 50.9576C71.3361 50.9576 71.588 51.2819 71.588 51.6819Z" fill="#05B2D8"/>
<path d="M75.1283 48.5214C75.1283 48.9214 74.8764 49.2457 74.5657 49.2457C74.255 49.2457 74.0031 48.9214 74.0031 48.5214C74.0031 48.1214 74.255 47.7972 74.5657 47.7972C74.8764 47.7972 75.1283 48.1214 75.1283 48.5214Z" fill="#05B2D8"/>
<path d="M79.2449 44.0755C79.2449 44.4755 78.993 44.7998 78.6823 44.7998C78.3716 44.7998 78.1197 44.4755 78.1197 44.0755C78.1197 43.6755 78.3716 43.3513 78.6823 43.3513C78.993 43.3513 79.2449 43.6755 79.2449 44.0755Z" fill="#05B2D8"/>
<path d="M71.0254 61.6286C71.0254 62.1652 70.6875 62.6002 70.2707 62.6002C69.8539 62.6002 69.516 62.1652 69.516 61.6286C69.516 61.092 69.8539 60.657 70.2707 60.657C70.6875 60.657 71.0254 61.092 71.0254 61.6286Z" fill="#05B2D8"/>
<path d="M77.3101 47.5499C77.3101 48.0864 76.9722 48.5214 76.5554 48.5214C76.1386 48.5214 75.8007 48.0864 75.8007 47.5499C75.8007 47.0133 76.1386 46.5783 76.5554 46.5783C76.9722 46.5783 77.3101 47.0133 77.3101 47.5499Z" fill="#05B2D8"/>
</svg>
