<svg xmlns="http://www.w3.org/2000/svg" viewBox="0 0 48 48"><defs><style>.cls-1{fill:#ffce52;}.cls-2{fill:#ffe369;}.cls-3{fill:#ffb32b;}.cls-4{fill:#f6fafd;}.cls-5{fill:#ae2d4c;}.cls-6{fill:#3bc5f6;}.cls-7{fill:#ededed;}.cls-8{fill:#8a293d;}.cls-9{fill:#048ec6;}.cls-10{fill:#273941;}</style></defs><title>22-cry</title><g id="_22-cry" data-name="22-cry"><circle class="cls-1" cx="24" cy="24" r="23"/><path class="cls-2" d="M24,4c12.15,0,22,8.507,22,19h.975a23,23,0,0,0-45.95,0H2C2,12.507,11.85,4,24,4Z"/><path class="cls-3" d="M46,23c0,10.493-9.85,19-22,19S2,33.493,2,23H1.025c-.014.332-.025.665-.025,1a23,23,0,0,0,46,0c0-.335-.011-.668-.025-1Z"/><ellipse class="cls-4" cx="34" cy="5" rx="0.825" ry="1.148" transform="translate(6.43 25.516) rotate(-45.02)"/><ellipse class="cls-4" cx="26.746" cy="3.5" rx="0.413" ry="0.574" transform="translate(5.364 19.945) rotate(-45.02)"/><ellipse class="cls-4" cx="30" cy="4" rx="1.65" ry="2.297" transform="translate(5.965 22.393) rotate(-45.02)"/><path class="cls-4" d="M29,24v1c0,1.11-2.24,2-5,2s-5-.89-5-2V24Z"/><path class="cls-5" d="M29,25v8c0,1.11,0,2-1,2a22.685,22.685,0,0,0-4-1,22.685,22.685,0,0,0-4,1c-1,0-1-.89-1-2V25c0,1.11,2.24,2,5,2S29,26.11,29,25Z"/><path class="cls-6" d="M15,14.18V45.17a22.953,22.953,0,0,1-6-3.75V16l-.08-.18A19.838,19.838,0,0,1,15,14.18Z"/><path class="cls-6" d="M39.08,15.82,39,16V41.42a22.953,22.953,0,0,1-6,3.75V14.18A19.838,19.838,0,0,1,39.08,15.82Z"/><rect class="cls-7" x="19" y="24" width="10" height="1"/><path class="cls-8" d="M24,27c-2.76,0-5-.89-5-2v1c0,1.11,2.24,2,5,2s5-.89,5-2V25C29,26.11,26.76,27,24,27Z"/><path class="cls-8" d="M28,34a22.685,22.685,0,0,0-4-1,22.685,22.685,0,0,0-4,1c-1,0-1-.89-1-2v1c0,1.11,0,2,1,2a22.685,22.685,0,0,1,4-1,22.685,22.685,0,0,1,4,1c1,0,1-.89,1-2V32C29,33.11,29,34,28,34Z"/><path class="cls-9" d="M9,36.893V41.42a22.948,22.948,0,0,0,3,2.19v.013c.441.27.894.523,1.354.763l.081.042c.511.265,1.032.514,1.565.742V40.336a23.024,23.024,0,0,1-3-1.415A21.932,21.932,0,0,1,9,36.893Z"/><path class="cls-9" d="M36,38.921a23.024,23.024,0,0,1-3,1.415V45.17c.533-.228,1.055-.477,1.566-.743l.08-.041c.46-.24.913-.493,1.354-.763V43.61a22.948,22.948,0,0,0,3-2.19V36.893A21.932,21.932,0,0,1,36,38.921Z"/><path class="cls-10" d="M43,19H41c0-1.8-5.076-4-11-4V13C36.252,13,43,15.294,43,19Z"/><path class="cls-10" d="M7,19H5c0-3.706,6.748-6,13-6v2C12.076,15,7,17.2,7,19Z"/></g></svg>