<svg xmlns="http://www.w3.org/2000/svg" viewBox="0 0 48 48"><defs><style>.cls-1{fill:#ffce52;}.cls-2{fill:#3bc5f6;}.cls-3{fill:#273941;}.cls-4{fill:#141e21;}.cls-5{fill:#f6fafd;}.cls-6{fill:#ffe369;}.cls-7{fill:#ffb32b;}.cls-8{fill:#00a3e1;}</style></defs><title>23-sad</title><g id="_23-sad" data-name="23-sad"><circle class="cls-1" cx="24" cy="24" r="23"/><path class="cls-2" d="M37,35.667A3.179,3.179,0,0,1,34,39a3.179,3.179,0,0,1-3-3.333C31,33.826,33.25,29,34,29S37,33.826,37,35.667Z"/><path class="cls-3" d="M10,17V15c3.722,0,6-1.295,6-2h2C18,15.626,13.976,17,10,17Z"/><path class="cls-3" d="M38,17c-3.976,0-8-1.374-8-4h2c0,.705,2.278,2,6,2Z"/><path class="cls-3" d="M24,35a10.343,10.343,0,0,0-4,1,4,4,0,0,1,8,0A10.343,10.343,0,0,0,24,35Z"/><circle class="cls-3" cx="34" cy="22" r="5"/><circle class="cls-3" cx="14" cy="22" r="5"/><circle class="cls-4" cx="34" cy="22" r="4"/><circle class="cls-4" cx="14" cy="22" r="4"/><circle class="cls-5" cx="35.5" cy="20.5" r="1.5"/><circle class="cls-5" cx="32.5" cy="23.5" r="1.5"/><circle class="cls-5" cx="35.5" cy="23.5" r="0.5"/><circle class="cls-5" cx="12.5" cy="20.5" r="1.5"/><circle class="cls-5" cx="15.5" cy="23.5" r="1.5"/><circle class="cls-5" cx="12.5" cy="23.5" r="0.5"/><path class="cls-6" d="M24,4c12.15,0,22,8.507,22,19h.975a23,23,0,0,0-45.95,0H2C2,12.507,11.85,4,24,4Z"/><path class="cls-7" d="M46,23c0,10.493-9.85,19-22,19S2,33.493,2,23H1.025c-.014.332-.025.665-.025,1a23,23,0,0,0,46,0c0-.335-.011-.668-.025-1Z"/><ellipse class="cls-5" cx="37" cy="9" rx="0.825" ry="1.148" transform="translate(4.48 28.81) rotate(-45.02)"/><ellipse class="cls-5" cx="30.746" cy="4.5" rx="0.413" ry="0.574" transform="translate(5.829 23.067) rotate(-45.02)"/><ellipse class="cls-5" cx="34" cy="7" rx="1.65" ry="2.297" transform="translate(5.015 26.102) rotate(-45.02)"/><path class="cls-8" d="M34.135,29.047c.723.439,2.365,3.908,2.365,5.286a2.505,2.505,0,1,1-5,0c0-1.378,1.642-4.847,2.365-5.286-.852.469-2.865,4.877-2.865,6.62A3.179,3.179,0,0,0,34,39a3.179,3.179,0,0,0,3-3.333C37,33.924,34.987,29.516,34.135,29.047Z"/><ellipse class="cls-5" cx="35" cy="35" rx="0.825" ry="1.148" transform="translate(-14.497 35.017) rotate(-45.02)"/><ellipse class="cls-5" cx="35.746" cy="33.5" rx="0.413" ry="0.574" transform="translate(-13.218 35.105) rotate(-45.02)"/><path class="cls-7" d="M34,39a3.048,3.048,0,0,1-2.853-2.354A4.808,4.808,0,0,0,31,37.667,3.179,3.179,0,0,0,34,41a3.179,3.179,0,0,0,3-3.333,4.808,4.808,0,0,0-.147-1.021A3.048,3.048,0,0,1,34,39Z"/></g></svg>