<?xml version="1.0" encoding="UTF-8"?>
<!DOCTYPE svg PUBLIC "-//W3C//DTD SVG 1.1//EN" "http://www.w3.org/Graphics/SVG/1.1/DTD/svg11.dtd">
<!-- Creator: CorelDRAW -->
<svg xmlns="http://www.w3.org/2000/svg" xml:space="preserve" width="2048px" height="2048px" style="shape-rendering:geometricPrecision; text-rendering:geometricPrecision; image-rendering:optimizeQuality; fill-rule:evenodd; clip-rule:evenodd"
viewBox="0 0 2048 2048"
 xmlns:xlink="http://www.w3.org/1999/xlink">
 <defs>
  <style type="text/css">
   <![CDATA[
    .fil2 {fill:none}
    .fil1 {fill:#00ACC1}
    .fil0 {fill:#4DD0E1}
    .fil3 {fill:#E65100}
    .fil5 {fill:#FFD180}
    .fil4 {fill:#FFE0B2}
   ]]>
  </style>
   <clipPath id="id0">
    <path d="M1024 0c565.539,0 1024,458.461 1024,1024 0,565.539 -458.461,1024 -1024,1024 -565.539,0 -1024,-458.461 -1024,-1024 0,-565.539 458.461,-1024 1024,-1024z"/>
   </clipPath>
 </defs>
 <g id="Layer_x0020_1">
  <metadata id="CorelCorpID_0Corel-Layer"/>
  <path class="fil0" d="M1024 0c565.539,0 1024,458.461 1024,1024 0,565.539 -458.461,1024 -1024,1024 -565.539,0 -1024,-458.461 -1024,-1024 0,-565.539 458.461,-1024 1024,-1024z"/>
  <g style="clip-path:url(#id0)">
   <g id="_461751488">
    <g>
     <polygon id="_4600713281" class="fil1" points="1168.61,490.591 2304.49,1626.47 2304.45,1670.92 1168.57,535.042 "/>
     <polygon id="_460057672" class="fil1" points="1368.26,535.042 2504.14,1670.92 2504.14,1693.15 1368.26,557.267 "/>
     <polygon id="_460075000" class="fil1" points="1168.64,464 2304.52,1599.88 2304.49,1626.47 1168.61,490.591 "/>
     <polygon id="_460078312" class="fil1" points="1368.26,1490.76 2504.14,2626.65 2504.14,2648.87 1368.26,1512.99 "/>
     <polygon id="_460058056" class="fil1" points="1368.26,1512.99 2504.14,2648.87 2481.92,2648.87 1346.04,1512.99 "/>
     <polygon id="_460070464" class="fil1" points="1346.04,1512.99 2481.92,2648.87 2304.51,2648.87 1168.63,1512.99 "/>
     <polygon id="_460066192" class="fil1" points="1168.63,1512.99 2304.51,2648.87 2304.51,2693.32 1168.63,1557.44 "/>
     <polygon id="_460074976" class="fil1" points="1168.63,1557.44 2304.51,2693.32 2304.51,2719.88 1168.63,1584 "/>
     <polygon id="_460056640" class="fil1" points="1168.63,1584 2304.51,2719.88 2278.38,2715.11 1142.5,1579.23 "/>
     <polygon id="_460076368" class="fil1" points="1142.5,1579.23 2278.38,2715.11 1834.33,2634.06 698.445,1498.17 "/>
     <polygon id="_460076584" class="fil1" points="698.445,1498.17 1834.33,2634.06 1816.1,2630.73 680.223,1494.85 "/>
     <polygon id="_460054504" class="fil1" points="1368.26,557.267 2504.14,1693.15 2504.14,2626.65 1368.26,1490.76 "/>
    </g>
    <polygon id="_461739224" class="fil1" points="1168.61,490.591 1168.57,535.042 1346.04,535.042 1368.26,535.042 1368.26,557.267 1368.26,1490.76 1368.26,1512.99 1346.04,1512.99 1168.63,1512.99 1168.63,1557.44 1168.63,1584 1142.5,1579.23 698.445,1498.17 680.223,1494.85 680.214,1476.38 679.747,572.211 679.738,553.754 697.891,550.421 1142.48,468.801 1168.64,464 "/>
   </g>
  </g>
  <path class="fil2" d="M1024 0c565.539,0 1024,458.461 1024,1024 0,565.539 -458.461,1024 -1024,1024 -565.539,0 -1024,-458.461 -1024,-1024 0,-565.539 458.461,-1024 1024,-1024z"/>
  <polygon class="fil3" points="1168.61,490.591 1168.57,535.042 1346.04,535.042 1368.26,535.042 1368.26,557.267 1368.26,1490.76 1368.26,1512.99 1346.04,1512.99 1168.63,1512.99 1168.63,1557.44 1168.63,1584 1142.5,1579.23 698.445,1498.17 680.223,1494.85 680.214,1476.38 679.747,572.211 679.738,553.754 697.891,550.421 1142.48,468.801 1168.64,464 "/>
  <polygon class="fil4" points="1346.04,557.271 1346.04,1488.9 1168.23,1488.9 1168.23,557.271 "/>
  <path class="fil5" d="M1046.21 993.343c8.29371,-10.7941 19.9843,-17.4709 33.1051,-17.4709 13.1504,0 24.8457,6.65906 33.1229,17.4236 7.60867,9.89646 12.3154,23.354 12.3154,38.0303 0,14.6764 -4.7067,28.1351 -12.3154,38.0303 -8.27717,10.7646 -19.9725,17.4236 -33.1229,17.4236 -13.1209,0 -24.8114,-6.6756 -33.1051,-17.4709 -7.60512,-9.89646 -12.3095,-23.3398 -12.3095,-37.9831 0,-14.6433 4.70433,-28.0855 12.3095,-37.9831z"/>
 </g>
</svg>
