<svg xmlns="http://www.w3.org/2000/svg" viewBox="0 0 48 48"><title>02-confetti</title><g id="_02-confetti" data-name="02-confetti"><circle cx="45" cy="3" r="2" style="fill:#80dbff"/><rect x="13.879" y="4.879" width="4.243" height="4.243" transform="translate(-0.263 13.364) rotate(-44.999)" style="fill:#80dbff"/><polygon points="47 16.319 44.91 16.739 44.21 19.099 42.82 16.319 40.04 14.929 42.4 14.23 42.82 12.14 44.21 13.53 46.3 12.84 45.61 14.929 47 16.319" style="fill:#ffe733"/><polygon points="35.86 5.18 33.77 5.6 33.07 7.96 31.68 5.18 28.9 3.79 31.26 3.09 31.68 1 33.07 2.39 35.16 1.7 34.47 3.79 35.86 5.18" style="fill:#ff808c"/><polygon points="19.48 37.549 16.05 39.679 8.34 31.969 10.47 28.539 19.48 37.549" style="fill:#b5efff"/><path d="M16.05,39.679,4.82,46.638a2.522,2.522,0,0,1-3.46-3.46L4,38.919V39l4.34-7.03Z" style="fill:#d2a0f5"/><polygon points="23.78 34.879 19.48 37.549 10.47 28.539 13.13 24.229 23.78 34.879" style="fill:#ffa1c8"/><polygon points="27.23 32.749 23.78 34.879 13.13 24.229 15.26 20.789 27.23 32.749" style="fill:#bdf052"/><polygon points="32.38 29.549 27.23 32.749 15.26 20.789 18.45 15.629 32.38 29.549" style="fill:#ffcfe2"/><circle cx="45" cy="3" r="2" style="fill:#bdf052"/><rect x="13.879" y="4.879" width="4.243" height="4.243" transform="translate(-0.263 13.364) rotate(-44.999)" style="fill:#80dbff"/><polygon points="16 8 14 6 13 7 16 10 19 7 18 6 16 8" style="fill:#4ab8f7"/><polygon points="47 16.319 44.91 16.739 44.21 19.099 42.82 16.319 40.04 14.929 42.4 14.23 42.82 12.14 44.21 13.53 46.3 12.84 45.61 14.929 47 16.319" style="fill:#ffe733"/><polygon points="35.86 5.18 33.77 5.6 33.07 7.96 31.68 5.18 28.9 3.79 31.26 3.09 31.68 1 33.07 2.39 35.16 1.7 34.47 3.79 35.86 5.18" style="fill:#ffe733"/><polygon points="13 34.999 8.964 30.963 8.34 31.969 12.185 35.814 13 34.999" style="fill:#64e1dc"/><polygon points="12.185 35.814 16.05 39.679 17.056 39.054 13 34.999 12.185 35.814" style="fill:#1cadb5"/><polygon points="13 34.999 17.056 39.054 19.48 37.549 14.965 33.034 13 34.999" style="fill:#64e1dc"/><polygon points="14.965 33.034 10.47 28.539 8.964 30.963 13 34.999 14.965 33.034" style="fill:#b5efff"/><path d="M8.34,31.969,4,39v-.08L1.36,43.178a2.517,2.517,0,0,0,.38,3.08L12.185,35.814Z" style="fill:#d2a0f5"/><path d="M1.74,46.258a2.513,2.513,0,0,0,3.08.38l11.23-6.959-3.865-3.865Z" style="fill:#b674f2"/><polygon points="16 31.999 11.26 27.259 10.47 28.539 14.965 33.034 16 31.999" style="fill:#ff8fb8"/><polygon points="14.965 33.034 19.48 37.549 20.757 36.756 16 31.999 14.965 33.034" style="fill:#ff468c"/><polygon points="16 31.999 20.757 36.756 23.78 34.879 18.45 29.549 16 31.999" style="fill:#ff73a5"/><polygon points="18.45 29.549 13.13 24.229 11.26 27.259 16 31.999 18.45 29.549" style="fill:#ffa1c8"/><polygon points="19.5 28.499 13.933 22.932 13.13 24.229 18.45 29.549 19.5 28.499" style="fill:#a7e340"/><polygon points="18.45 29.549 23.78 34.879 25.078 34.077 19.5 28.499 18.45 29.549" style="fill:#86c42b"/><polygon points="21.237 26.762 15.26 20.789 13.933 22.932 19.5 28.499 21.237 26.762" style="fill:#bdf052"/><polygon points="19.5 28.499 25.078 34.077 27.23 32.749 21.237 26.762 19.5 28.499" style="fill:#a7e340"/><polygon points="25.412 22.587 22.5 25.499 28.784 31.783 32.38 29.549 25.412 22.587" style="fill:#ffa1c8"/><polygon points="25.412 22.587 18.45 15.629 16.227 19.226 22.5 25.499 25.412 22.587" style="fill:#ffcfe2"/><polygon points="22.5 25.499 16.227 19.226 15.26 20.789 21.237 26.762 22.5 25.499" style="fill:#ff808c"/><polygon points="21.237 26.762 27.23 32.749 28.784 31.783 22.5 25.499 21.237 26.762" style="fill:#f25a6b"/><circle cx="45" cy="3" r="1" style="fill:#ffe733"/><rect x="27.189" y="18.749" width="2.121" height="2" transform="translate(-5.691 25.761) rotate(-45.001)" style="fill:#4ab8f7"/><rect x="28.55" y="13.5" width="9.899" height="2" transform="translate(-0.441 27.936) rotate(-45.001)" style="fill:#ffa1c8"/><rect x="39.586" y="6" width="2.828" height="2" transform="translate(7.059 31.042) rotate(-45.001)" style="fill:#80dbff"/><rect x="37.723" y="8.33" width="1.895" height="2" transform="translate(4.729 30.077) rotate(-45.001)" style="fill:#c78ff5"/><path d="M32.643,21.145l-1.286-1.532a23.552,23.552,0,0,1,6.953-4.224l.68,1.881A21.58,21.58,0,0,0,32.643,21.145Z" style="fill:#ff6e7c"/><path d="M31.875,11.427l-1.809-.855c.279-.59.5-1.1.664-1.564l1.88.683C32.42,10.212,32.18,10.78,31.875,11.427Z" style="fill:#a7e340"/><path d="M26.117,19.117,24.7,17.7a29.6,29.6,0,0,0,4.867-6.2l1.74.985A31.525,31.525,0,0,1,26.117,19.117Z" style="fill:#80dbff"/><path d="M24,16H22c0-2.769-1.641-5-3-5V9C21.664,9,24,12.271,24,16Z" style="fill:#c78ff5"/><rect x="41" y="21.999" width="2" height="2" style="fill:#ff73a5"/><rect x="24" y="7" width="2" height="2" style="fill:#80dbff"/><rect x="24" y="5" width="2" height="2" style="fill:#ffa1c8"/><rect x="24" y="9" width="2" height="2" style="fill:#ffa1c8"/><rect x="26" y="7" width="2" height="2" style="fill:#ffa1c8"/><rect x="22" y="7" width="2" height="2" style="fill:#ffa1c8"/><path d="M33.971,26.008c-.494-.014-1-.013-1.485-.01H32V24h.479c.507,0,1.034,0,1.55.011Z" style="fill:#b674f2"/><path d="M44.277,28.947c-1.5-1.167-2.911-2.263-4.659-2.43A5.341,5.341,0,0,0,38.2,25.011a5.642,5.642,0,0,0-3.119-.959l-.154,1.994a4.021,4.021,0,0,1,2.041.541c.08.062.145.117.212.172a4.505,4.505,0,0,0-2.309,1.524,2.3,2.3,0,0,0-.5,1.858A2.388,2.388,0,0,0,36.037,31.9a2.415,2.415,0,0,0,.684.1,2.872,2.872,0,0,0,1.771-.665,3.4,3.4,0,0,0,1.5-2.713v0a10.346,10.346,0,0,1,3.056,1.906l.341.266,1.226-1.58Zm-6.287-.315a1.637,1.637,0,0,1-.73,1.124.776.776,0,0,1-.658.223.444.444,0,0,1-.271-.226c0-.019.014-.106.137-.271a2.657,2.657,0,0,1,1.523-.877Z" style="fill:#c78ff5"/><rect x="41" y="19.999" width="2" height="2" style="fill:#80dbff"/><rect x="43" y="21.999" width="2" height="2" style="fill:#80dbff"/><rect x="41" y="23.999" width="2" height="2" style="fill:#80dbff"/><rect x="39" y="21.999" width="2" height="2" style="fill:#80dbff"/><ellipse cx="20.003" cy="20.987" rx="1.642" ry="2.286" transform="translate(-8.981 20.301) rotate(-45.02)" style="fill:#f6fafd"/><ellipse cx="23" cy="23" rx="0.825" ry="1.148" transform="translate(-9.527 23.011) rotate(-45.02)" style="fill:#f6fafd"/><ellipse cx="45.746" cy="2.5" rx="0.413" ry="0.574" transform="translate(11.641 33.091) rotate(-45.02)" style="fill:#f6fafd"/><ellipse cx="16.746" cy="6.5" rx="0.413" ry="0.574" transform="translate(0.311 13.751) rotate(-45.02)" style="fill:#f6fafd"/><ellipse cx="16.746" cy="23.5" rx="0.413" ry="0.574" transform="translate(-11.714 18.734) rotate(-45.02)" style="fill:#f6fafd"/><path d="M22.536,18.293l-1.414,1.415,9.656,9.656L27.366,31.48l-2.19-2.19L23.762,30.7l1.859,1.859-1.693,1.05-9.541-9.541,1.05-1.693,7.326,7.326,1.414-1.414L16.52,20.634l2.116-3.412,1.486,1.486,1.414-1.414-2.378-2.378a1,1,0,0,0-1.557.18L4.343,36.473l1.7,1.053,2.465-3.973,5.94,5.94L4.306,45.783a1.523,1.523,0,0,1-2.1-2.076L4.85,39.45,3.15,38.4.5,42.666A3.522,3.522,0,0,0,5.347,47.49L32.9,30.4a1,1,0,0,0,.18-1.557Zm-.353,16.4L19.63,36.278,11.722,28.37l1.583-2.553ZM9.589,31.807l1.05-1.692,7.246,7.246-1.692,1.05Z"/><rect x="27.193" y="18.749" width="2.117" height="2" transform="translate(-5.69 25.761) rotate(-45)"/><rect x="28.55" y="13.5" width="9.899" height="2" transform="translate(-0.441 27.935) rotate(-45)"/><rect x="39.586" y="6" width="2.828" height="2" transform="translate(7.059 31.042) rotate(-45)"/><rect x="37.722" y="8.33" width="1.896" height="2" transform="translate(4.729 30.077) rotate(-45)"/><path d="M46.751,14.656l.5-1.5a1,1,0,0,0-1.265-1.265l-1.5.5-.956-.956a1,1,0,0,0-1.687.511l-.3,1.5-1.788.526a1,1,0,0,0-.165,1.854l2.488,1.243,1.243,2.488a1,1,0,0,0,.894.552q.045,0,.09,0a1,1,0,0,0,.87-.714L45.7,17.6l1.5-.3a1,1,0,0,0,.511-1.688Zm-2.036,1.1a1,1,0,0,0-.741.631l-.257-.515a1,1,0,0,0-.447-.447l-.516-.258a1,1,0,0,0,.631-.741l.051-.257.072.072a1,1,0,0,0,1.023.241l.192-.064-.064.192a1,1,0,0,0,.241,1.023l.072.072Z"/><path d="M38.993,17.27l-.678-1.882a23.523,23.523,0,0,0-6.958,4.221l1.285,1.534A21.538,21.538,0,0,1,38.993,17.27Z"/><path d="M31.67,21.989,30.329,20.5c-.5.452-.981.912-1.444,1.375L30.3,23.293C30.738,22.854,31.2,22.417,31.67,21.989Z"/><path d="M28.448,4.68l2.488,1.243,1.243,2.488a1,1,0,0,0,.894.552c.03,0,.06,0,.09,0a1,1,0,0,0,.87-.713l.526-1.788,1.5-.3a1,1,0,0,0,.511-1.687l-.956-.956.5-1.5A1,1,0,0,0,34.846.748l-1.5.5L32.388.293A1,1,0,0,0,30.7.8l-.3,1.5-1.788.526a1,1,0,0,0-.165,1.854Zm3.8-1.395.051-.257.072.072a1,1,0,0,0,1.023.241l.192-.064-.064.192a1,1,0,0,0,.241,1.023l.072.072-.257.051a1,1,0,0,0-.741.631l-.258-.516a1,1,0,0,0-.447-.447l-.515-.257A1,1,0,0,0,32.244,3.285Z"/><path d="M30.068,10.56l1.795.881a17.249,17.249,0,0,0,.749-1.756L30.73,9.007A15.214,15.214,0,0,1,30.068,10.56Z"/><path d="M24.707,17.7l1.414,1.414a31.864,31.864,0,0,0,5.187-6.623l-1.742-.983A29.828,29.828,0,0,1,24.707,17.7Z"/><path d="M45,6a3,3,0,1,0-3-3A3,3,0,0,0,45,6Zm0-4a1,1,0,1,1-1,1A1,1,0,0,1,45,2Z"/><path d="M15.293,10.707a1,1,0,0,0,1.414,0l3-3a1,1,0,0,0,0-1.414l-3-3a1,1,0,0,0-1.414,0l-3,3a1,1,0,0,0,0,1.414ZM16,5.414,17.586,7,16,8.586,14.414,7Z"/><path d="M19,11c1.359,0,3,2.23,3,5h2c0-3.729-2.336-7-5-7Z"/><rect x="24" y="5" width="2" height="2"/><rect x="24" y="9" width="2" height="2"/><rect x="26" y="7" width="2" height="2"/><rect x="22" y="7" width="2" height="2"/><rect x="41" y="20" width="2" height="2"/><rect x="41" y="24" width="2" height="2"/><rect x="43" y="22" width="2" height="2"/><rect x="39" y="22" width="2" height="2"/><path d="M32,24v2l.588,0c.457,0,.926,0,1.391.005l.042-2C33.539,24,33.052,24,32.578,24Z"/><path d="M39.641,26.512a5.441,5.441,0,0,0-1.448-1.506,5.663,5.663,0,0,0-3.116-.949l-.154,1.994a4.074,4.074,0,0,1,2.041.533c.078.06.149.117.215.17a4.519,4.519,0,0,0-2.306,1.524,2.3,2.3,0,0,0-.5,1.872A2.411,2.411,0,0,0,36.713,32a2.876,2.876,0,0,0,1.773-.666,3.394,3.394,0,0,0,1.506-2.723,10.415,10.415,0,0,1,3.071,1.928l.323.252,1.228-1.579-.319-.249C42.8,27.789,41.376,26.679,39.641,26.512Zm-1.649,2.119a1.65,1.65,0,0,1-.743,1.13.764.764,0,0,1-.647.222.464.464,0,0,1-.268-.224c-.005-.029.017-.119.134-.274a2.651,2.651,0,0,1,1.524-.883Z"/></g></svg>