<svg width="96" height="96" viewBox="0 0 96 96" fill="none" xmlns="http://www.w3.org/2000/svg">
<path fill-rule="evenodd" clip-rule="evenodd" d="M47.834 23.391C48.9386 23.391 49.834 24.2864 49.834 25.391V80.9469C49.834 82.0514 48.9386 82.9469 47.834 82.9469C46.7295 82.9469 45.834 82.0514 45.834 80.9469V25.391C45.834 24.2864 46.7295 23.391 47.834 23.391Z" fill="#06CEB6"/>
<path fill-rule="evenodd" clip-rule="evenodd" d="M47.834 23.391C48.9386 23.391 49.834 24.2864 49.834 25.391V48.9469C49.834 50.0514 48.9386 50.9469 47.834 50.9469C46.7295 50.9469 45.834 50.0514 45.834 48.9469V25.391C45.834 24.2864 46.7295 23.391 47.834 23.391Z" fill="#03A692"/>
<path fill-rule="evenodd" clip-rule="evenodd" d="M71.364 44.569C72.0163 45.4604 71.8224 46.7118 70.931 47.3641C67.3126 50.0117 64.3373 55.179 62.1008 60.9141C59.8943 66.5724 58.5406 72.4292 57.9762 76.0574C57.8064 77.1489 56.784 77.896 55.6926 77.7262C54.6011 77.5565 53.854 76.534 54.0237 75.4426C54.626 71.5708 56.0473 65.4276 58.3741 59.4609C60.671 53.571 63.9874 47.4884 68.569 44.136C69.4604 43.4837 70.7118 43.6776 71.364 44.569Z" fill="#FC30AA"/>
<path fill-rule="evenodd" clip-rule="evenodd" d="M71.364 44.569C72.0163 45.4604 71.8224 46.7118 70.931 47.3641C67.5678 49.825 64.7494 54.473 62.5626 59.764C62.1407 60.7848 60.9711 61.2703 59.9503 60.8484C58.9295 60.4264 58.444 59.2569 58.8659 58.2361C61.1272 52.7649 64.2922 47.2653 68.569 44.136C69.4604 43.4837 70.7118 43.6776 71.364 44.569Z" fill="#DB0C88"/>
<path fill-rule="evenodd" clip-rule="evenodd" d="M24.304 44.569C23.6517 45.4604 23.8456 46.7118 24.737 47.3641C28.3554 50.0117 31.3307 55.179 33.5672 60.9141C35.7738 66.5724 37.1274 72.4292 37.6918 76.0574C37.8616 77.1489 38.884 77.896 39.9755 77.7262C41.0669 77.5565 41.8141 76.534 41.6443 75.4426C41.042 71.5708 39.6207 65.4276 37.2939 59.4609C34.9971 53.571 31.6807 47.4884 27.0991 44.136C26.2077 43.4837 24.9563 43.6776 24.304 44.569Z" fill="#30F0FC"/>
<path fill-rule="evenodd" clip-rule="evenodd" d="M24.304 44.569C23.6517 45.4604 23.8456 46.7118 24.737 47.3641C27.8847 49.6673 30.5637 53.8941 32.6958 58.7975C33.1362 59.8105 34.3144 60.2746 35.3274 59.8341C36.3404 59.3937 36.8045 58.2155 36.364 57.2025C34.1451 52.0991 31.1162 47.0753 27.0991 44.136C26.2077 43.4837 24.9563 43.6776 24.304 44.569Z" fill="#10D5E1"/>
<path fill-rule="evenodd" clip-rule="evenodd" d="M16.4278 66.2307C16.7422 65.7767 17.3651 65.6634 17.8192 65.9778C24.4771 70.5871 27.978 76.2 28.9272 78.5505C29.1341 79.0626 28.8866 79.6454 28.3745 79.8522C27.8624 80.059 27.2796 79.8115 27.0728 79.2994C26.272 77.3166 23.0229 72.0128 16.6808 67.6221C16.2267 67.3078 16.1134 66.6848 16.4278 66.2307Z" fill="#4CD41D"/>
<path fill-rule="evenodd" clip-rule="evenodd" d="M79.2402 66.2307C78.9259 65.7767 78.3029 65.6634 77.8488 65.9778C71.1909 70.5871 67.69 76.2 66.7408 78.5505C66.534 79.0626 66.7815 79.6454 67.2936 79.8522C67.8057 80.059 68.3885 79.8115 68.5953 79.2994C69.396 77.3166 72.6452 72.0128 78.9872 67.6221C79.4413 67.3078 79.5546 66.6848 79.2402 66.2307Z" fill="#F39911"/>
<path d="M24.375 67.3625C24.375 70.4 21.9126 72.8625 18.875 72.8625C15.8374 72.8625 13.375 70.4 13.375 67.3625C13.375 64.3249 15.8374 61.8625 18.875 61.8625C21.9126 61.8625 24.375 64.3249 24.375 67.3625Z" fill="#BAF144"/>
<path d="M80.75 67.3625C80.75 70.4 78.2876 72.8625 75.25 72.8625C72.2124 72.8625 69.75 70.4 69.75 67.3625C69.75 64.3249 72.2124 61.8625 75.25 61.8625C78.2876 61.8625 80.75 64.3249 80.75 67.3625Z" fill="#FCDA63"/>
<path d="M28 18.1875C28 20.7073 25.9573 22.75 23.4375 22.75C20.9177 22.75 18.875 20.7073 18.875 18.1875C18.875 15.6677 20.9177 13.625 23.4375 13.625C25.9573 13.625 28 15.6677 28 18.1875Z" fill="#53FFF5"/>
<path d="M73.3392 20.8285C73.3392 23.3483 71.2965 25.391 68.7767 25.391C66.2569 25.391 64.2142 23.3483 64.2142 20.8285C64.2142 18.3087 66.2569 16.266 68.7767 16.266C71.2965 16.266 73.3392 18.3087 73.3392 20.8285Z" fill="#FFAFD0"/>
<path d="M37.9643 17.7223L42.6978 16.7028C42.9743 16.6432 43.2127 16.4693 43.3538 16.2241L45.1864 13.0412L46.3981 10.9367C46.7773 10.2781 47.7237 10.2665 48.1189 10.9157L51.2912 16.1273C51.4382 16.369 51.6808 16.537 51.9587 16.5898L56.7156 17.4936C57.4962 17.6419 57.8004 18.5974 57.2492 19.1697L53.3741 23.1935C53.1444 23.432 53.0477 23.7687 53.1158 24.0928L54.0699 28.6346C54.2412 29.4502 53.3982 30.1052 52.6502 29.7377L47.9115 27.4089C47.6257 27.2684 47.29 27.2725 47.0076 27.4199L42.3272 29.8636C41.5884 30.2493 40.7296 29.615 40.881 28.7955L41.724 24.2317C41.7842 23.9061 41.6793 23.5718 41.4438 23.339L37.4717 19.4109C36.9068 18.8523 37.1876 17.8896 37.9643 17.7223Z" fill="#FFFA7D"/>
<path fill-rule="evenodd" clip-rule="evenodd" d="M41.8423 14.8412L37.5432 15.7672C35.213 16.2691 34.3706 19.157 36.0654 20.833L39.6612 24.3889L38.9143 28.4321C38.4601 30.8909 41.0364 32.7937 43.2528 31.6365L47.4841 29.4273L51.7681 31.5326C54.0121 32.6354 56.5412 30.6703 56.0271 28.2234L55.1819 24.1996L58.6898 20.5571C60.3433 18.8402 59.4306 15.9737 57.0889 15.5288L52.7685 14.7079L49.8273 9.87586C48.6417 7.92814 45.8025 7.96277 44.6648 9.93882L41.8423 14.8412ZM47.0294 29.2039L47.0311 29.2047ZM53.1158 24.0928L54.0699 28.6346C54.2412 29.4502 53.3982 30.1053 52.6502 29.7377L47.9115 27.4089C47.6257 27.2684 47.29 27.2725 47.0076 27.4199L42.3272 29.8636C41.5884 30.2493 40.7296 29.615 40.881 28.7955L41.724 24.2317C41.7842 23.9061 41.6793 23.5718 41.4438 23.339L37.4717 19.411C36.9068 18.8523 37.1876 17.8896 37.9643 17.7223L42.6978 16.7028C42.9743 16.6432 43.2127 16.4693 43.3538 16.2242L46.3981 10.9367C46.7773 10.2781 47.7237 10.2665 48.1189 10.9158L51.2912 16.1273C51.4382 16.369 51.6808 16.537 51.9587 16.5898L56.7156 17.4936C57.4962 17.6419 57.8004 18.5974 57.2492 19.1697L53.3741 23.1935C53.1444 23.432 53.0477 23.7687 53.1158 24.0928Z" fill="#EBC232"/>
<path d="M71.6264 32.6246L75.4231 35.6296C75.6449 35.8051 75.9307 35.8785 76.2096 35.8316L79.8316 35.2221L82.2262 34.8191C82.9757 34.693 83.5864 35.4161 83.3366 36.1339L81.3314 41.8961C81.2384 42.1633 81.2629 42.4574 81.3989 42.7054L83.726 46.9515C84.1079 47.6483 83.5638 48.4906 82.7717 48.4291L77.2021 47.9968C76.872 47.9712 76.5506 48.1107 76.3437 48.3692L73.445 51.9936C72.9244 52.6444 71.8828 52.4103 71.6909 51.5992L70.4752 46.4611C70.4018 46.1512 70.1852 45.8947 69.8919 45.7705L65.0298 43.7119C64.2623 43.3869 64.2058 42.3208 64.9346 41.9166L68.993 39.6654C69.2826 39.5047 69.4739 39.2112 69.5039 38.8815L70.0099 33.3181C70.0819 32.5268 71.0034 32.1314 71.6264 32.6246Z" fill="#FFFA7D"/>
<path fill-rule="evenodd" clip-rule="evenodd" d="M76.3159 33.7856L72.8676 31.0563C70.9986 29.577 68.234 30.7631 68.0181 33.1369L67.56 38.1732L63.9645 40.1676C61.778 41.3804 61.9476 44.5787 64.25 45.5536L68.6456 47.4147L69.7446 52.0597C70.3204 54.4929 73.4452 55.1954 75.0069 53.2428L77.575 50.0318L82.6169 50.4231C84.9934 50.6076 86.6254 48.0806 85.4798 45.9903L83.3663 42.1338L85.2255 36.7913C85.9749 34.6378 84.1429 32.4685 81.8943 32.8469L76.3159 33.7856ZM68.5289 46.9216L68.5293 46.9235ZM76.3437 48.3692L73.445 51.9936C72.9244 52.6444 71.8828 52.4103 71.6909 51.5992L70.4751 46.4611C70.4018 46.1512 70.1852 45.8947 69.8919 45.7705L65.0298 43.7119C64.2623 43.3869 64.2058 42.3208 64.9346 41.9166L68.993 39.6653C69.2826 39.5047 69.4739 39.2112 69.5038 38.8815L70.0099 33.3181C70.0819 32.5268 71.0034 32.1314 71.6264 32.6246L75.4231 35.6296C75.6449 35.8051 75.9307 35.8785 76.2096 35.8316L82.2262 34.8191C82.9757 34.693 83.5864 35.4161 83.3366 36.1339L81.3313 41.8961C81.2384 42.1633 81.2629 42.4574 81.3989 42.7054L83.726 46.9515C84.1078 47.6483 83.5638 48.4906 82.7717 48.4291L77.2021 47.9968C76.8719 47.9712 76.5505 48.1107 76.3437 48.3692Z" fill="#EBC232"/>
<path fill-rule="evenodd" clip-rule="evenodd" d="M71.6298 35.8332C71.998 35.4216 72.6302 35.3865 73.0418 35.7548L75.0708 37.5702L78.1735 37.1347C78.7204 37.058 79.226 37.4391 79.3028 37.986C79.3796 38.5329 78.9984 39.0385 78.4515 39.1153L74.889 39.6153C74.5974 39.6562 74.3026 39.5666 74.0832 39.3703L71.7082 37.2453C71.2966 36.877 71.2615 36.2448 71.6298 35.8332Z" fill="white"/>
<path d="M23.3866 32.6246L19.5899 35.6296C19.3681 35.8051 19.0823 35.8785 18.8033 35.8316L15.1814 35.2221L12.7868 34.8191C12.0373 34.693 11.4266 35.4161 11.6764 36.1339L13.6816 41.8961C13.7746 42.1633 13.7501 42.4574 13.6141 42.7054L11.287 46.9515C10.9051 47.6483 11.4492 48.4906 12.2413 48.4291L17.8109 47.9968C18.141 47.9712 18.4624 48.1107 18.6692 48.3692L21.568 51.9936C22.0886 52.6444 23.1302 52.4103 23.3221 51.5992L24.5378 46.4611C24.6112 46.1512 24.8278 45.8947 25.1211 45.7705L29.9832 43.7119C30.7506 43.3869 30.8072 42.3208 30.0783 41.9166L26.0199 39.6654C25.7304 39.5047 25.5391 39.2112 25.5091 38.8815L25.0031 33.3181C24.9311 32.5268 24.0096 32.1314 23.3866 32.6246Z" fill="#FFFA7D"/>
<path fill-rule="evenodd" clip-rule="evenodd" d="M18.6971 33.7856L22.1453 31.0563C24.0144 29.577 26.7789 30.7631 26.9949 33.1369L27.453 38.1732L31.0485 40.1676C33.2349 41.3804 33.0654 44.5787 30.763 45.5536L26.3674 47.4147L25.2683 52.0597C24.6926 54.4929 21.5678 55.1954 20.0061 53.2428L17.438 50.0318L12.3961 50.4231C10.0196 50.6076 8.38753 48.0806 9.53312 45.9903L11.6467 42.1338L9.78749 36.7913C9.03808 34.6378 10.8701 32.4685 13.1187 32.8469L18.6971 33.7856ZM26.4841 46.9216L26.4837 46.9235ZM18.6692 48.3692L21.568 51.9936C22.0886 52.6444 23.1302 52.4103 23.3221 51.5992L24.5378 46.4611C24.6112 46.1512 24.8278 45.8947 25.1211 45.7705L29.9832 43.7119C30.7506 43.3869 30.8072 42.3208 30.0783 41.9166L26.0199 39.6653C25.7304 39.5047 25.5391 39.2112 25.5091 38.8815L25.0031 33.3181C24.9311 32.5268 24.0096 32.1314 23.3866 32.6246L19.5899 35.6296C19.3681 35.8051 19.0823 35.8785 18.8033 35.8316L12.7868 34.8191C12.0373 34.693 11.4266 35.4161 11.6764 36.1339L13.6816 41.8961C13.7746 42.1633 13.7501 42.4574 13.6141 42.7054L11.287 46.9515C10.9051 47.6483 11.4492 48.4906 12.2413 48.4291L17.8109 47.9968C18.141 47.9712 18.4624 48.1107 18.6692 48.3692Z" fill="#EBC232"/>
<path fill-rule="evenodd" clip-rule="evenodd" d="M46.9551 15.1096C47.4469 15.3609 47.6418 15.9633 47.3904 16.4551L45.9529 19.2676C45.7991 19.5687 45.5035 19.7716 45.1672 19.807L41.6047 20.182C41.0554 20.2398 40.5633 19.8414 40.5055 19.2922C40.4477 18.7429 40.8461 18.2508 41.3953 18.193L44.4188 17.8747L45.6096 15.5449C45.8609 15.0531 46.4633 14.8582 46.9551 15.1096Z" fill="white"/>
<path fill-rule="evenodd" clip-rule="evenodd" d="M15.0252 38.6047C15.5541 38.446 16.1116 38.7462 16.2703 39.2752L17.0203 41.7752C17.0863 41.9951 17.0746 42.231 16.9872 42.4433L15.6747 45.6308C15.4644 46.1415 14.8799 46.385 14.3693 46.1747C13.8586 45.9644 13.615 45.38 13.8253 44.8693L15.0027 42.0099L14.3547 39.8499C14.196 39.3209 14.4962 38.7634 15.0252 38.6047Z" fill="white"/>
<path d="M22.095 18.5735C22.2969 19.3594 21.204 20.3193 19.654 20.7174C18.104 21.1155 16.6839 20.8011 16.482 20.0152C16.2802 19.2293 17.3731 18.2694 18.923 17.8713C20.473 17.4732 21.8932 17.7876 22.095 18.5735Z" fill="#11AFF3"/>
<path d="M30.1804 16.4968C30.3822 17.2827 29.2893 18.2426 27.7394 18.6407C26.1894 19.0388 24.7692 18.7244 24.5674 17.9385C24.3655 17.1526 25.4584 16.1927 27.0084 15.7946C28.5584 15.3965 29.9785 15.7109 30.1804 16.4968Z" fill="#11AFF3"/>
<path d="M23.6487 19.4922C24.4346 19.2903 25.3945 20.3832 25.7926 21.9332C26.1907 23.4831 25.8763 24.9033 25.0904 25.1052C24.3045 25.307 23.3446 24.2141 22.9465 22.6642C22.5484 21.1142 22.8628 19.694 23.6487 19.4922Z" fill="#11AFF3"/>
<path d="M21.572 11.4068C22.3579 11.205 23.3178 12.2979 23.7159 13.8478C24.114 15.3978 23.7996 16.818 23.0137 17.0198C22.2278 17.2217 21.268 16.1288 20.8698 14.5788C20.4717 13.0288 20.7861 11.6087 21.572 11.4068Z" fill="#11AFF3"/>
<path d="M17.7039 66.9936C17.4694 67.971 15.7167 68.3884 13.7891 67.926C11.8615 67.4635 10.489 66.2963 10.7235 65.3189C10.9579 64.3415 12.7107 63.9241 14.6382 64.3866C16.5658 64.849 17.9384 66.0162 17.7039 66.9936Z" fill="#4CD31D"/>
<path d="M27.759 69.406C27.5245 70.3834 25.7718 70.8008 23.8442 70.3383C21.9166 69.8759 20.5441 68.7087 20.7786 67.7313C21.0131 66.7539 22.7658 66.3365 24.6934 66.7989C26.6209 67.2614 27.9935 68.4286 27.759 69.406Z" fill="#4CD31D"/>
<path d="M18.8724 68.8998C19.8498 69.1343 20.2672 70.887 19.8047 72.8146C19.3423 74.7422 18.1751 76.1147 17.1977 75.8802C16.2203 75.6457 15.8029 73.893 16.2654 71.9654C16.7278 70.0378 17.895 68.6653 18.8724 68.8998Z" fill="#4CD31D"/>
<path d="M21.2848 58.8447C22.2622 59.0792 22.6796 60.8319 22.2171 62.7595C21.7547 64.6871 20.5874 66.0596 19.6101 65.8251C18.6327 65.5906 18.2153 63.8379 18.6777 61.9103C19.1402 59.9827 20.3074 58.6102 21.2848 58.8447Z" fill="#4CD31D"/>
<path d="M76.7884 66.9936C77.0229 67.971 78.7756 68.3884 80.7032 67.926C82.6307 67.4635 84.0033 66.2963 83.7688 65.3189C83.5343 64.3415 81.7816 63.9241 79.854 64.3866C77.9264 64.849 76.5539 66.0162 76.7884 66.9936Z" fill="#F39911"/>
<path d="M66.7333 69.406C66.9677 70.3834 68.7205 70.8008 70.648 70.3383C72.5756 69.8759 73.9482 68.7087 73.7137 67.7313C73.4792 66.7539 71.7265 66.3365 69.7989 66.7989C67.8713 67.2614 66.4988 68.4286 66.7333 69.406Z" fill="#F39911"/>
<path d="M75.6198 68.8998C74.6425 69.1343 74.225 70.887 74.6875 72.8146C75.15 74.7422 76.3172 76.1147 77.2946 75.8802C78.2719 75.6457 78.6894 73.893 78.2269 71.9654C77.7644 70.0378 76.5972 68.6653 75.6198 68.8998Z" fill="#F39911"/>
<path d="M73.2075 58.8447C72.2301 59.0792 71.8127 60.8319 72.2751 62.7595C72.7376 64.6871 73.9048 66.0596 74.8822 65.8251C75.8596 65.5906 76.277 63.8379 75.8145 61.9103C75.3521 59.9827 74.1849 58.6102 73.2075 58.8447Z" fill="#F39911"/>
<path d="M70.0129 21.5735C69.8111 22.3594 70.9039 23.3193 72.4539 23.7174C74.0039 24.1155 75.424 23.8011 75.6259 23.0152C75.8278 22.2293 74.7349 21.2694 73.1849 20.8713C71.6349 20.4732 70.2148 20.7876 70.0129 21.5735Z" fill="#F31170"/>
<path d="M61.9276 19.4968C61.7257 20.2827 62.8186 21.2426 64.3686 21.6407C65.9186 22.0388 67.3387 21.7244 67.5406 20.9385C67.7424 20.1526 66.6495 19.1927 65.0996 18.7946C63.5496 18.3965 62.1294 18.7109 61.9276 19.4968Z" fill="#F31170"/>
<path d="M68.4592 22.4922C67.6733 22.2903 66.7135 23.3832 66.3154 24.9332C65.9173 26.4831 66.2316 27.9033 67.0176 28.1052C67.8035 28.307 68.7633 27.2141 69.1614 25.6642C69.5595 24.1142 69.2451 22.694 68.4592 22.4922Z" fill="#F31170"/>
<path d="M70.5359 14.4068C69.75 14.205 68.7902 15.2979 68.3921 16.8478C67.9939 18.3978 68.3083 19.818 69.0942 20.0198C69.8802 20.2217 70.84 19.1288 71.2381 17.5788C71.6362 16.0288 71.3218 14.6087 70.5359 14.4068Z" fill="#F31170"/>
</svg>
