<?xml version="1.0" encoding="iso-8859-1"?>
<!-- Generator: Adobe Illustrator 19.0.0, SVG Export Plug-In . SVG Version: 6.00 Build 0)  -->
<svg xmlns="http://www.w3.org/2000/svg" xmlns:xlink="http://www.w3.org/1999/xlink" version="1.1" id="Layer_1" x="0px" y="0px" viewBox="0 0 512 512" style="enable-background:new 0 0 512 512;" xml:space="preserve">
<polygon style="fill:#029AE6;" points="78.009,122.865 7.499,247.432 99.68,299.61 150.008,245.859 170.19,175.043 "/>
<path style="fill:#FFB480;" d="M325.47,169.607l-50.411-5.596l-26.684,23.563l-34.854,107.83l82.222,53.507  c0,0,67.747-29.131,70.657-64.636v-56.758L325.47,169.607z"/>
<path style="fill:#F2A36D;" d="M324.242,262.242l-104.165-58.961l-19.74-11.173l-50.329,53.751l-20.181,70.816l123.905,70.135  c8.6,4.868,19.517,1.842,24.384-6.757l0,0c4.868-8.6,1.842-19.516-6.757-24.384c8.6,4.868,19.517,1.842,24.384-6.757l0,0  c4.868-8.6,1.842-19.516-6.757-24.384c8.6,4.868,19.517,1.842,24.384-6.757c4.867-8.6,1.842-19.516-6.757-24.384  c8.6,4.868,19.517,1.842,24.384-6.757l0,0C335.866,278.027,332.841,267.11,324.242,262.242z"/>
<rect x="78.447" y="228.532" transform="matrix(-0.4926 0.8703 -0.8703 -0.4926 437.8767 236.398)" style="fill:#E6E0CB;" width="143.148" height="34.642"/>
<polygon style="fill:#EE534F;" points="458.078,122.985 358.15,158.118 366.4,227.516 405.625,293.154 504.501,258.022 "/>
<rect x="293.964" y="214.043" transform="matrix(0.3317 0.9434 -0.9434 0.3317 462.5554 -190.2202)" style="fill:#E6E0CB;" width="143.144" height="34.642"/>
<polygon style="opacity:0.1;enable-background:new    ;" points="365.342,283.019 372.945,304.643 504.501,258.022 497.049,236.344   "/>
<g style="opacity:0.1;">
	<path d="M298.009,340.25c0.018,0.01,0.034,0.023,0.052,0.033c0-0.002,0-0.005,0-0.007   C298.044,340.267,298.026,340.26,298.009,340.25z"/>
	<path d="M278.579,374.577L18.773,227.516L7.499,247.432l246.233,139.377c8.6,4.868,19.517,1.842,24.384-6.757l0,0   c0.869-1.534,1.474-3.144,1.854-4.778C279.503,375.056,279.036,374.835,278.579,374.577z"/>
</g>
<path style="fill:#FFB480;" d="M275.059,164.012c-19.024-2.112-37.448,7.441-46.684,24.206l-27.426,49.784  c-4.768,8.656-1.617,19.537,7.038,24.305l0,0c8.656,4.768,19.537,1.617,24.305-7.038l18.928-34.359L275.059,164.012z"/>
<path d="M3.806,253.961l246.233,139.377c3.939,2.23,8.229,3.29,12.464,3.29c8.856,0,17.472-4.635,22.138-12.878  c3.435-6.069,4.091-12.966,2.38-19.212c5.435-1.522,10.364-4.844,13.816-9.688c5.198-2.379,19.071-9.058,33.349-18.731  c14.384-9.745,24.906-19.605,31.51-29.487l0.177,0.504c0.659,1.876,2.037,3.413,3.829,4.272c1.783,0.856,3.863,0.971,5.729,0.313  l73.17-25.876c3.901-1.386,5.941-5.673,4.555-9.574c-1.386-3.901-5.673-5.941-9.574-4.555l-33.379,11.859l-26.617-75.708  c-1.372-3.905-5.655-5.96-9.559-4.586c-3.906,1.373-5.96,5.653-4.586,9.559l26.625,75.732l-18.536,6.516l-3.655-10.393  c0.055-0.998-0.08-1.995-0.417-2.937l-38.398-107.573l18.502-6.504l5.645,16.056c1.372,3.905,5.653,5.96,9.559,4.586  c5.394-1.897,5.364-7.347,3.763-11.9l-4.821-13.714l85.732-30.142l41.557,120.88l-19.942,7.086  c-3.901,1.386-5.941,5.673-4.555,9.574c1.363,3.837,5.743,5.916,9.574,4.554l26.934-9.57c3.873-1.375,5.917-5.614,4.58-9.501  l-46.423-135.037c-0.649-1.889-2.025-3.44-3.823-4.311c-1.797-0.87-3.868-0.987-5.753-0.324l-99.928,35.132l-31.066,10.923  l-48.712-5.407c-22.098-2.455-43.34,8.552-54.077,28.041l-4.639,8.421l-74.501-42.171c-3.603-2.04-8.178-0.772-10.218,2.832  c-2.039,3.603-0.772,8.178,2.832,10.218l24.689,13.974L96.848,289.397l-79.132-44.793L80.84,133.086l27.363,15.489  c3.603,2.04,8.178,0.773,10.217-2.832c2.04-3.603,0.772-8.178-2.832-10.217l-33.886-19.181c-1.73-0.98-3.778-1.231-5.695-0.701  c-1.916,0.531-3.543,1.801-4.522,3.532L0.974,243.743C-1.065,247.346,0.202,251.921,3.806,253.961z M173.021,185.265l17.097,9.678  l-63.123,111.518l-17.098-9.678L173.021,185.265z M234.942,191.839c7.801-14.159,23.226-22.155,39.29-20.373l45.729,5.076  l38.592,109.77c-3.95,19.747-33.205,39.095-53.337,49.705c-0.144-0.88-0.33-1.751-0.565-2.611  c6.504-1.821,11.915-6.061,15.243-11.94c3.328-5.877,4.177-12.694,2.395-19.204c6.499-1.823,11.906-6.061,15.232-11.937  c3.342-5.902,4.184-12.752,2.373-19.287c-1.812-6.535-6.06-11.974-11.961-15.315l-73.023-41.333c-0.01-0.005-0.02-0.009-0.03-0.015  c-0.015-0.008-0.028-0.018-0.043-0.026c-2.679-1.493-6.126-1.128-8.463,0.852c-0.663,0.561-1.253,1.264-1.681,2.021  c-0.011,0.02-0.019,0.041-0.04,0.076l-18.928,34.359c-2.766,5.02-9.1,6.854-14.121,4.089c-5.02-2.766-6.854-9.1-4.089-14.121  L234.942,191.839z M194.382,234.388c-6.754,12.262-2.274,27.734,9.987,34.489c12.262,6.754,27.734,2.274,34.49-9.987l15.268-27.716  l66.42,37.596c2.416,1.368,4.155,3.595,4.896,6.271c0.742,2.676,0.397,5.48-0.972,7.897c-1.367,2.416-3.595,4.155-6.27,4.897  s-5.48,0.397-7.897-0.972c-0.001,0-0.003-0.001-0.004-0.001l-51.728-29.28c-3.602-2.039-8.178-0.772-10.218,2.831  c-2.039,3.604-0.771,8.179,2.832,10.218l51.729,29.281c0.001,0,0.002,0.001,0.003,0.002c2.417,1.367,4.155,3.595,4.897,6.269  c0.741,2.676,0.396,5.48-0.973,7.897c-1.367,2.416-3.595,4.155-6.269,4.897c-2.675,0.742-5.48,0.397-7.897-0.972  c-0.001,0-0.003-0.001-0.004-0.001l-51.728-29.28c-3.602-2.039-8.178-0.772-10.218,2.831c-2.039,3.604-0.771,8.179,2.832,10.218  l51.729,29.281c0.001,0,0.002,0.001,0.003,0.002c4.988,2.823,6.75,9.179,3.927,14.166c-2.825,4.989-9.18,6.748-14.168,3.926  l-51.733-29.282c-3.602-2.039-8.178-0.772-10.218,2.831c-2.039,3.604-0.771,8.179,2.832,10.218l51.733,29.282  c4.988,2.824,6.749,9.179,3.926,14.167c-2.825,4.989-9.179,6.748-14.168,3.926l-117.379-66.444l63.124-111.518l6.766,3.83  L194.382,234.388z"/>
<g>
</g>
<g>
</g>
<g>
</g>
<g>
</g>
<g>
</g>
<g>
</g>
<g>
</g>
<g>
</g>
<g>
</g>
<g>
</g>
<g>
</g>
<g>
</g>
<g>
</g>
<g>
</g>
<g>
</g>
</svg>
