<?xml version="1.0" encoding="iso-8859-1"?>
<!-- Generator: Adobe Illustrator 19.0.0, SVG Export Plug-In . SVG Version: 6.00 Build 0)  -->
<svg xmlns="http://www.w3.org/2000/svg" xmlns:xlink="http://www.w3.org/1999/xlink" version="1.1" id="Layer_1" x="0px" y="0px" viewBox="0 0 512 512" style="enable-background:new 0 0 512 512;" xml:space="preserve">
<path style="fill:#AFB9D2;" d="M501.602,227.238c-1.121-9.219-8.975-16.15-18.261-16.15h-21.638  c-5.378-24.248-14.927-46.913-27.866-67.225l15.313-15.314c6.568-6.567,7.22-17.021,1.494-24.333  c-6.04-7.712-12.596-15.153-19.699-22.255c-7.103-7.103-14.541-13.658-22.255-19.698c-7.311-5.726-17.767-5.074-24.333,1.492  l-15.314,15.314c-20.312-12.939-42.976-22.489-67.224-27.867V29.564c0-9.287-6.931-17.14-16.15-18.261  c-9.726-1.183-19.621-1.809-29.666-1.809c-10.045,0-19.941,0.625-29.666,1.809c-9.219,1.121-16.15,8.974-16.15,18.261v21.637  c-24.248,5.378-46.913,14.928-67.224,27.867l-15.314-15.314c-6.567-6.567-17.022-7.218-24.333-1.492  C95.6,68.301,88.16,74.856,81.058,81.959S67.4,96.502,61.359,104.214c-5.726,7.312-5.074,17.767,1.492,24.333l15.314,15.314  c-12.939,20.313-22.489,42.977-27.867,67.225H28.662c-9.287,0-17.14,6.931-18.261,16.15c-1.183,9.725-1.809,19.621-1.809,29.666  c0,10.045,0.625,19.94,1.809,29.665c1.121,9.219,8.974,16.151,18.261,16.151h21.637c5.378,24.248,14.928,46.913,27.867,67.224  l-15.314,15.314c-6.567,6.567-7.218,17.021-1.492,24.333c6.04,7.713,12.596,15.153,19.699,22.255s14.542,13.658,22.255,19.699  c7.311,5.726,17.767,5.074,24.333-1.494l15.314-15.314c20.313,12.939,42.977,22.489,67.225,27.867v21.636  c0,9.287,6.931,17.14,16.15,18.261c9.726,1.183,19.621,1.809,29.666,1.809c10.045,0,19.94-0.625,29.666-1.809  c9.219-1.121,16.15-8.974,16.15-18.261v-21.636c24.248-5.378,46.913-14.928,67.225-27.867l15.313,15.314  c6.567,6.567,17.022,7.22,24.333,1.494c7.713-6.04,15.153-12.596,22.255-19.699s13.659-14.542,19.699-22.255  c5.726-7.312,5.075-17.767-1.494-24.333l-15.313-15.314c12.939-20.313,22.488-42.976,27.866-67.224h21.638  c9.286,0,17.14-6.932,18.261-16.151c1.182-9.725,1.807-19.621,1.807-29.665C503.409,246.858,502.784,236.963,501.602,227.238z   M256,376.027c-65.79,0-119.123-53.334-119.123-119.123S190.211,137.781,256,137.781s119.123,53.334,119.123,119.123  S321.79,376.027,256,376.027z"/>
<g>
	<path style="fill:#959CB5;" d="M118.55,256.904c0-107.073,79.867-195.435,183.266-208.913V29.564c0-9.287-6.931-17.14-16.15-18.261   C275.941,10.12,266.045,9.494,256,9.494c-10.045,0-19.941,0.625-29.666,1.809c-9.219,1.121-16.15,8.974-16.15,18.261v21.637   c-24.248,5.378-46.913,14.928-67.224,27.867l-15.314-15.314c-6.567-6.567-17.022-7.218-24.333-1.492   c-7.713,6.04-15.153,12.595-22.255,19.698s-13.658,14.543-19.699,22.255c-5.726,7.312-5.074,17.767,1.492,24.333l15.314,15.314   c-12.939,20.313-22.489,42.977-27.867,67.225H28.661c-9.287,0-17.14,6.931-18.261,16.15c-1.183,9.725-1.809,19.621-1.809,29.666   c0,10.045,0.625,19.94,1.809,29.665c1.121,9.219,8.974,16.151,18.261,16.151h21.637c5.378,24.248,14.928,46.913,27.867,67.224   L62.85,385.259c-6.567,6.567-7.218,17.021-1.492,24.333c6.04,7.713,12.596,15.153,19.699,22.255s14.542,13.658,22.255,19.699   c7.311,5.726,17.767,5.074,24.333-1.494l15.314-15.314c20.313,12.939,42.977,22.489,67.225,27.867v21.636   c0,9.287,6.931,17.14,16.15,18.261c9.726,1.183,19.621,1.809,29.666,1.809c10.045,0,19.94-0.625,29.666-1.809   c9.219-1.121,16.15-8.974,16.15-18.261v-18.424C198.418,452.339,118.55,363.977,118.55,256.904z"/>
	<path style="fill:#959CB5;" d="M401.88,454.829c1.522-0.385,3-0.954,4.409-1.739C404.819,453.668,403.367,454.284,401.88,454.829z"/>
	<path style="fill:#959CB5;" d="M406.289,60.718c-1.408-0.786-2.888-1.354-4.41-1.739C403.366,59.525,404.818,60.14,406.289,60.718z   "/>
</g>
<path style="fill:#7F8499;" d="M256,101.127c-86.033,0-155.776,69.743-155.776,155.776S169.967,412.68,256,412.68  s155.776-69.743,155.776-155.776S342.033,101.127,256,101.127z M256,376.027c-65.79,0-119.123-53.334-119.123-119.123  S190.211,137.781,256,137.781s119.123,53.334,119.123,119.123S321.79,376.027,256,376.027z"/>
<path d="M510.13,225.296c-1.644-13.514-13.162-23.703-26.79-23.703h-14.854c-5.147-20.174-13.123-39.414-23.778-57.357  l10.517-10.518c9.638-9.636,10.576-24.985,2.182-35.705c-6.342-8.097-13.201-15.847-20.387-23.033  c-7.186-7.187-14.936-14.046-23.033-20.387c-10.716-8.394-26.067-7.455-35.704,2.182l-10.518,10.518  c-17.944-10.656-37.184-18.631-57.358-23.779V28.661c0-13.629-10.19-25.146-23.703-26.789C276.496,0.63,266.166,0,256,0  c-10.166,0-20.496,0.63-30.704,1.872c-13.514,1.643-23.703,13.16-23.703,26.789v14.854c-20.174,5.147-39.414,13.123-57.357,23.779  l-10.518-10.518c-9.638-9.638-24.987-10.576-35.704-2.182c-8.097,6.341-15.847,13.2-23.033,20.387  c-7.186,7.186-14.046,14.936-20.387,23.033c-8.394,10.719-7.455,26.067,2.182,35.704l10.517,10.518  c-10.656,17.944-18.631,37.184-23.779,57.358H28.661c-13.628,0-25.146,10.19-26.79,23.703C0.63,235.503,0,245.833,0,256  c0,10.166,0.63,20.496,1.87,30.703c1.644,13.514,13.162,23.704,26.79,23.704h14.854c5.147,20.173,13.123,39.414,23.778,57.357  l-10.517,10.517c-9.638,9.638-10.574,24.986-2.182,35.704c6.34,8.095,13.199,15.845,20.387,23.033  c7.189,7.189,14.938,14.049,23.033,20.387c10.716,8.394,26.067,7.454,35.704-2.182l10.517-10.517  c17.944,10.656,37.184,18.631,57.357,23.779v14.854c0,13.628,10.19,25.145,23.703,26.79C235.507,511.37,245.837,512,256,512  c10.163,0,20.493-0.63,30.704-1.872c13.514-1.645,23.703-13.161,23.703-26.79v-14.853c20.173-5.147,39.414-13.123,57.357-23.779  l10.517,10.517c9.636,9.638,24.986,10.576,35.704,2.182c8.096-6.34,15.845-13.199,23.033-20.387  c7.189-7.189,14.049-14.938,20.387-23.033c8.394-10.718,7.456-26.067-2.182-35.704l-10.517-10.517  c10.655-17.943,18.631-37.184,23.778-57.357h14.854c13.628,0,25.146-10.191,26.79-23.704C511.37,276.496,512,266.166,512,256  C512,245.833,511.37,235.503,510.13,225.296z M493.073,284.628c-0.597,4.901-4.781,8.597-9.734,8.597h-21.637  c-4.028,0-7.515,2.798-8.387,6.73c-5.083,22.919-14.075,44.609-26.726,64.47c-2.164,3.397-1.677,7.842,1.171,10.69l15.314,15.314  c3.503,3.503,3.847,9.075,0.804,12.963c-5.914,7.552-12.31,14.777-19.009,21.478s-13.926,13.096-21.478,19.009  c-3.888,3.044-9.46,2.697-12.963-0.804l-15.314-15.314c-2.848-2.848-7.292-3.334-10.69-1.171  c-19.861,12.651-41.552,21.643-64.471,26.726c-3.932,0.872-6.73,4.359-6.73,8.387v21.636c0,4.953-3.696,9.138-8.597,9.734  c-9.522,1.158-19.154,1.746-28.626,1.746c-9.473,0-19.104-0.588-28.628-1.746c-4.901-0.597-8.597-4.781-8.597-9.734v-21.636  c0-4.027-2.798-7.515-6.73-8.387c-22.919-5.083-44.609-14.075-64.471-26.726c-1.419-0.904-3.02-1.346-4.613-1.346  c-2.219,0-4.419,0.858-6.078,2.516l-15.314,15.314c-3.503,3.503-9.074,3.849-12.963,0.804c-7.552-5.914-14.777-12.31-21.478-19.009  s-13.096-13.926-19.009-21.478c-3.045-3.888-2.699-9.46,0.804-12.963l15.314-15.314c2.849-2.847,3.335-7.293,1.171-10.69  c-12.651-19.86-21.643-41.551-26.726-64.47c-0.873-3.932-4.359-6.73-8.387-6.73H28.658c-4.953,0-9.138-3.696-9.734-8.597  c-1.156-9.521-1.743-19.154-1.743-28.628c0-9.475,0.588-19.108,1.746-28.628c0.597-4.901,4.781-8.597,9.734-8.597h21.637  c4.028,0,7.515-2.798,8.387-6.73c5.083-22.92,14.075-44.61,26.726-64.471c2.164-3.397,1.677-7.842-1.171-10.69l-15.314-15.314  c-3.503-3.503-3.847-9.075-0.804-12.962c5.916-7.554,12.312-14.779,19.009-21.478c6.698-6.698,13.925-13.094,21.478-19.009  c3.888-3.045,9.46-2.699,12.963,0.804l15.314,15.314c2.848,2.848,7.293,3.335,10.69,1.171c19.859-12.65,41.55-21.643,64.47-26.726  c3.932-0.872,6.73-4.359,6.73-8.387V28.659c0-4.953,3.696-9.138,8.597-9.735c9.52-1.156,19.152-1.743,28.627-1.743  c9.475,0,19.108,0.588,28.628,1.744c4.901,0.597,8.597,4.781,8.597,9.735v21.637c0,4.027,2.798,7.515,6.73,8.387  c22.92,5.083,44.61,14.076,64.47,26.726c3.396,2.164,7.842,1.678,10.69-1.171l15.314-15.314c3.503-3.503,9.074-3.847,12.963-0.804  c7.553,5.915,14.779,12.311,21.478,19.009c6.698,6.698,13.094,13.925,19.009,21.478c3.044,3.888,2.699,9.46-0.804,12.963  l-15.314,15.314c-2.849,2.848-3.335,7.293-1.171,10.69c12.65,19.859,21.643,41.551,26.726,64.471c0.873,3.932,4.359,6.73,8.387,6.73  h21.637c4.953,0,9.138,3.696,9.734,8.597c1.158,9.522,1.746,19.154,1.746,28.628C494.82,265.477,494.231,275.108,493.073,284.628z"/>
<path d="M256,383.714c70.421,0,127.714-57.292,127.714-127.714S326.421,128.286,256,128.286S128.286,185.579,128.286,256  S185.579,383.714,256,383.714z M256,145.468c60.947,0,110.532,49.585,110.532,110.532S316.947,366.532,256,366.532  S145.468,316.947,145.468,256S195.053,145.468,256,145.468z"/>
<path d="M151.924,151.924c52.791-52.79,136.702-57.752,195.184-11.541c3.723,2.941,9.126,2.308,12.067-1.415  s2.308-9.126-1.415-12.066c-65.322-51.615-159.035-46.079-217.986,12.872c-58.952,58.952-64.486,152.665-12.873,217.986  c1.695,2.145,4.208,3.264,6.746,3.264c1.865,0,3.743-0.605,5.32-1.851c3.723-2.941,4.356-8.343,1.415-12.066  C94.172,288.625,99.133,204.715,151.924,151.924z"/>
<path d="M373.032,152.826c-3.723,2.941-4.356,8.343-1.415,12.066c46.211,58.484,41.25,142.393-11.541,195.184  c-52.791,52.79-136.702,57.752-195.184,11.541c-3.723-2.941-9.126-2.308-12.067,1.415c-2.941,3.723-2.308,9.126,1.415,12.066  c29.949,23.665,65.853,35.317,101.653,35.313c42.281-0.003,84.41-16.263,116.333-48.185  c58.952-58.952,64.486-152.665,12.873-217.986C382.156,150.517,376.754,149.884,373.032,152.826z"/>
<g>
</g>
<g>
</g>
<g>
</g>
<g>
</g>
<g>
</g>
<g>
</g>
<g>
</g>
<g>
</g>
<g>
</g>
<g>
</g>
<g>
</g>
<g>
</g>
<g>
</g>
<g>
</g>
<g>
</g>
</svg>
