<svg fill="#ffffff" xmlns="http://www.w3.org/2000/svg" viewBox="0 0 24 24"><title>medium audio</title><g id="medium_audio" data-name="medium audio"><path d="M11.46,3c-1,0-1,.13-6.76,4H1A1,1,0,0,0,0,8v8a1,1,0,0,0,1,1H4.7l5.36,3.57A2.54,2.54,0,0,0,14,18.46V5.54A2.54,2.54,0,0,0,11.46,3ZM2,9H4v6H2Zm10,9.46a.55.55,0,0,1-.83.45L6,15.46V8.54l5.17-3.45a.55.55,0,0,1,.83.45Z"/><path d="M16.83,9.17a1,1,0,0,0-1.42,1.42,2,2,0,0,1,0,2.82,1,1,0,0,0,.71,1.71C17.5,15.12,19.16,11.5,16.83,9.17Z"/><path d="M19,7.05a1,1,0,0,0-1.41,1.41,5,5,0,0,1,0,7.08,1,1,0,0,0,.7,1.7C19.9,17.24,23.09,11.19,19,7.05Z"/></g></svg>