<svg fill="#ffffff" xmlns="http://www.w3.org/2000/svg" viewBox="0 0 24 24"><title>no sound</title><g id="no_sound" data-name="no sound"><path d="M11.46,3c-1,0-1,.13-6.76,4H1A1,1,0,0,0,0,8v8a1,1,0,0,0,1,1H4.7l5.36,3.57A2.54,2.54,0,0,0,14,18.46V5.54A2.54,2.54,0,0,0,11.46,3ZM2,9H4v6H2Zm10,9.46a.55.55,0,0,1-.83.45L6,15.46V8.54l5.17-3.45a.55.55,0,0,1,.83.45Z"/><path d="M21.41,12l2.3-2.29a1,1,0,0,0-1.42-1.42L20,10.59l-2.29-2.3a1,1,0,0,0-1.42,1.42L18.59,12l-2.3,2.29a1,1,0,0,0,1.42,1.42L20,13.41l2.29,2.3a1,1,0,0,0,1.42-1.42Z"/></g></svg>